<svg width="15" height="15" viewBox="0 0 15 15" fill="none" xmlns="http://www.w3.org/2000/svg">
<path d="M0.178453 1.04006C-0.0594843 0.802121 -0.0594843 0.41639 0.178453 0.178453C0.41639 -0.0594843 0.802121 -0.0594843 1.04006 0.178453L0.178453 1.04006ZM13.9599 14.8215L0.178453 1.04006L1.04006 0.178453L14.8215 13.9599L13.9599 14.8215ZM14.8215 13.9599C15.0595 14.1979 15.0595 14.5836 14.8215 14.8215C14.5836 15.0595 14.1979 15.0595 13.9599 14.8215L14.8215 13.9599ZM1.04006 14.8215C0.802121 15.0595 0.41639 15.0595 0.178453 14.8215C-0.0594843 14.5836 -0.0594843 14.1979 0.178453 13.9599L1.04006 14.8215ZM14.8215 1.04006L1.04006 14.8215L0.178453 13.9599L13.9599 0.178453L14.8215 1.04006ZM13.9599 0.178453C14.1979 -0.0594843 14.5836 -0.0594843 14.8215 0.178453C15.0595 0.41639 15.0595 0.802121 14.8215 1.04006L13.9599 0.178453Z" fill="black"/>
</svg>
