<svg width="15" height="15" viewBox="0 0 15 15" fill="none" xmlns="http://www.w3.org/2000/svg">
<path d="M5.942 3.5785C5.78167 3.69117 5.63433 3.81033 5.5 3.936L5.8055 4.4235C5.86617 4.52317 5.95067 4.573 6.059 4.573C6.111 4.573 6.176 4.5405 6.254 4.4755C6.33633 4.4105 6.4425 4.339 6.5725 4.261C6.7025 4.183 6.86067 4.1115 7.047 4.0465C7.23767 3.9815 7.46517 3.949 7.7295 3.949C7.9245 3.949 8.1065 3.97717 8.2755 4.0335C8.44883 4.08983 8.59833 4.17217 8.724 4.2805C8.84967 4.3845 8.94933 4.51233 9.023 4.664C9.09667 4.81567 9.1335 4.98467 9.1335 5.171C9.1335 5.43967 9.0815 5.6715 8.9775 5.8665C8.8735 6.05717 8.7435 6.22833 8.5875 6.38C8.43583 6.53167 8.27117 6.67033 8.0935 6.796C7.91583 6.91733 7.75333 7.043 7.606 7.173C7.45867 7.29867 7.3395 7.43517 7.2485 7.5825C7.1575 7.7255 7.12067 7.8945 7.138 8.0895L7.216 9.1685H8.009L8.126 8.174C8.14333 8.031 8.20617 7.901 8.3145 7.784C8.42717 7.667 8.5615 7.55 8.7175 7.433L9.2115 7.0625C9.38917 6.92817 9.55167 6.77217 9.699 6.5945C9.85067 6.4125 9.97417 6.20233 10.0695 5.964C10.1692 5.72567 10.219 5.44183 10.219 5.1125C10.219 4.7875 10.1583 4.495 10.037 4.235C9.91567 3.975 9.74883 3.754 9.5365 3.572C9.32417 3.39 9.07067 3.24917 8.776 3.1495C8.48567 3.04983 8.16933 3 7.827 3C7.567 3 7.32433 3.026 7.099 3.078C6.878 3.12567 6.67 3.19283 6.475 3.2795C6.28433 3.36617 6.10667 3.46583 5.942 3.5785Z" fill="#CDCDCD"/>
<path d="M6.826 11.385C6.787 11.4847 6.7675 11.5908 6.7675 11.7035C6.7675 11.8205 6.787 11.9288 6.826 12.0285C6.86933 12.1238 6.92567 12.2083 6.995 12.282C7.06867 12.3557 7.15533 12.412 7.255 12.451C7.35467 12.4943 7.46083 12.516 7.5735 12.516C7.68617 12.516 7.79233 12.4943 7.892 12.451C7.99167 12.412 8.07833 12.3557 8.152 12.282C8.22567 12.2083 8.28417 12.1238 8.3275 12.0285C8.37083 11.9288 8.3925 11.8205 8.3925 11.7035C8.3925 11.5908 8.37083 11.4847 8.3275 11.385C8.28417 11.2853 8.22567 11.1987 8.152 11.125C8.07833 11.0513 7.99167 10.9928 7.892 10.9495C7.79233 10.9062 7.68617 10.8845 7.5735 10.8845C7.46083 10.8845 7.35467 10.9062 7.255 10.9495C7.15533 10.9928 7.06867 11.0513 6.995 11.125C6.92567 11.1987 6.86933 11.2853 6.826 11.385Z" fill="#CDCDCD"/>
<path fill-rule="evenodd" clip-rule="evenodd" d="M15 7.5C15 11.6421 11.6421 15 7.5 15C3.35786 15 0 11.6421 0 7.5C0 3.35786 3.35786 0 7.5 0C11.6421 0 15 3.35786 15 7.5ZM14 7.5C14 11.0899 11.0899 14 7.5 14C3.91015 14 1 11.0899 1 7.5C1 3.91015 3.91015 1 7.5 1C11.0899 1 14 3.91015 14 7.5Z" fill="#CDCDCD"/>
</svg>
