<svg width="30" height="30" viewBox="0 0 30 30" fill="none" xmlns="http://www.w3.org/2000/svg">
<path d="M0 2.06944C0 0.926521 0.895431 0 2 0H8C8.55228 0 9 0.463261 9 1.03472C9 1.60618 8.55228 2.06945 8 2.06945L2 2.06944V27.9306H14C14.5523 27.9306 15 28.3938 15 28.9653C15 29.5368 14.5523 30 14 30H2C0.895431 30 0 29.0735 0 27.9306V2.06944Z" fill="black"/>
<path d="M21 1.03472C21 0.463261 21.4477 0 22 0H28C29.1046 0 30 0.926522 30 2.06945V27.9306C30 29.0735 29.1046 30 28 30H24.5C24.3142 29.996 24.1492 29.9749 24.0041 29.9398C23.751 29.9409 23.4976 29.8417 23.3045 29.6422L18.3045 24.4773C17.9203 24.0805 17.9203 23.4371 18.3045 23.0403C18.6886 22.6435 19.3114 22.6435 19.6955 23.0403L24.4309 27.9319C24.4537 27.931 24.4767 27.9306 24.5 27.9306H28V2.06945H22C21.4477 2.06945 21 1.60618 21 1.03472Z" fill="black"/>
</svg>
