<svg width="30" height="36" viewBox="0 0 30 36" fill="none" xmlns="http://www.w3.org/2000/svg">
<path fill-rule="evenodd" clip-rule="evenodd" d="M0 2C0 0.895429 0.895431 0 2 0H8C8.55228 0 9 0.447715 9 1C9 1.55228 8.55228 2 8 2L2 2V28H15C15.5523 28 16 28.4477 16 29C16 29.5523 15.5523 30 15 30H2C0.895431 30 0 29.1046 0 28V2ZM21 1C21 0.447715 21.4477 0 22 0H28C29.1046 0 30 0.89543 30 2V28C30 29.1046 29.1046 30 28 30H24.5C23.9477 30 23.5 29.5523 23.5 29C23.5 28.4477 23.9477 28 24.5 28H28V2H22C21.4477 2 21 1.55228 21 1Z" fill="black"/>
<path fill-rule="evenodd" clip-rule="evenodd" d="M18.2929 34.6569C17.9024 34.2664 17.9024 33.6332 18.2929 33.2427L23.2427 28.293C23.6332 27.9025 24.2664 27.9025 24.6569 28.293C25.0474 28.6835 25.0474 29.3167 24.6569 29.7072L19.7071 34.6569C19.3166 35.0475 18.6834 35.0475 18.2929 34.6569Z" fill="black"/>
</svg>
