<svg width="28" height="28" viewBox="0 0 28 28" fill="none" xmlns="http://www.w3.org/2000/svg">
<path fill-rule="evenodd" clip-rule="evenodd" d="M2 2V26H26V2H2ZM1 0C0.447715 0 0 0.447715 0 1V27C0 27.5523 0.447715 28 1 28H27C27.5523 28 28 27.5523 28 27V1C28 0.447715 27.5523 0 27 0H1Z" fill="black"/>
<path fill-rule="evenodd" clip-rule="evenodd" d="M11 7V26H17V7H11ZM10 5C9.44772 5 9 5.44772 9 6V27C9 27.5523 9.44772 28 10 28H18C18.5523 28 19 27.5523 19 27V6C19 5.44772 18.5523 5 18 5H10Z" fill="black"/>
</svg>
