<svg width="25" height="25" viewBox="0 0 25 25" fill="none" xmlns="http://www.w3.org/2000/svg">
<path d="M0 12.5C0 5.59644 5.59644 0 12.5 0C19.4036 0 25 5.59644 25 12.5C25 19.4036 19.4036 25 12.5 25C5.59644 25 0 19.4036 0 12.5Z" fill="#FFA800"/>
<path d="M9.30747 18.7215C9.37219 18.8146 9.45395 18.8981 9.55191 18.9673C10.0031 19.2858 10.6271 19.1783 10.9456 18.7271L18.8172 7.57681C19.1357 7.12562 19.0282 6.50166 18.577 6.18314C18.1258 5.86463 17.5018 5.97218 17.1833 6.42336L10.2445 16.2524L6.89465 9.55275C6.64766 9.05877 6.04698 8.85854 5.55301 9.10553C5.05903 9.35252 4.8588 9.9532 5.10579 10.4472L9.10579 18.4472C9.15844 18.5525 9.22715 18.6444 9.30747 18.7215Z" fill="white"/>
</svg>
