<svg width="700" height="122" viewBox="0 0 700 122" fill="none" xmlns="http://www.w3.org/2000/svg">
<g clip-path="url(#clip0_211_644)">
<path d="M3.93272 45.4375C4.1727 45.4375 4.35037 45.4663 4.46106 45.5239C4.57175 45.581 4.68197 45.706 4.79731 45.8978L13.7004 61.6531C13.7195 61.433 13.739 61.2216 13.7577 61.0251C13.7772 60.8282 13.7963 60.6419 13.8153 60.4593L15.6589 45.4375H18.036L15.5008 66.0706H14.146C13.9255 66.0706 13.7428 66.0367 13.5991 65.9652C13.4549 65.8932 13.3298 65.7631 13.2247 65.5718L4.33548 50.0371C4.33548 50.0849 4.33548 50.1523 4.33083 50.234C4.32618 50.32 4.31641 50.4115 4.30665 50.5025C4.29688 50.5987 4.28711 50.6944 4.27781 50.7947C4.26804 50.896 4.25828 50.9773 4.24851 51.0442L2.37608 66.0711H-0.000976562L2.54909 45.438H3.93179L3.93272 45.4375Z" fill="black"/>
<path d="M24.6726 57.8126H37.0332L36.8025 59.712H24.4419L24.6726 57.8126ZM25.2777 53.0355H37.6099L37.3941 54.9349H25.0479L25.2781 53.0355H25.2777ZM50.436 66.2969V48.3927L46.6516 51.3717L45.821 50.4891L50.9453 45.2615H51.915L57.0481 50.4891L56.2175 51.3717L52.4335 48.3927V66.2969H50.4355H50.436Z" fill="black"/>
<path d="M97.8849 57.9138C97.8849 63.3105 98.6193 68.468 100.075 73.4202C101.532 78.3612 103.698 83.1331 106.587 87.7248C106.755 87.9896 106.84 88.2423 106.84 88.4824C106.84 88.8434 106.671 89.1077 106.334 89.2758L104.818 90.2137C102.952 87.3764 101.388 84.6242 100.124 81.9672C98.8602 79.3102 97.8375 76.6657 97.0673 74.0338C96.285 71.4009 95.7311 68.7565 95.3823 66.112C95.0335 63.4675 94.8525 60.7385 94.8525 57.9143C94.8525 55.1012 95.0214 52.3727 95.3707 49.7161C95.7195 47.0475 96.285 44.4031 97.0436 41.7702C97.8137 39.1378 98.8248 36.4934 100.088 33.8368C101.352 31.1798 102.905 28.4276 104.746 25.5903L106.287 26.5282C106.612 26.6963 106.768 26.949 106.768 27.2853C106.768 27.526 106.683 27.7786 106.515 28.043C103.663 32.6588 101.508 37.4433 100.064 42.3838C98.6072 47.336 97.8854 52.5051 97.8854 57.9148L97.8849 57.9138Z" fill="black"/>
<path d="M126.326 28.6667C126.326 30.7245 126.59 32.7191 127.118 34.6524C127.646 36.5852 128.409 38.4317 129.408 40.1871C129.466 40.2976 129.505 40.3887 129.524 40.4653C129.543 40.542 129.553 40.6186 129.553 40.6957C129.553 40.8295 129.519 40.94 129.452 41.0264C129.385 41.1128 129.298 41.1895 129.192 41.2568L128.054 41.9476C127.334 40.8439 126.724 39.7463 126.22 38.6621C125.715 37.5779 125.307 36.4896 124.995 35.3956C124.683 34.2975 124.453 33.1994 124.309 32.0865C124.164 30.9781 124.092 29.8368 124.092 28.6667C124.092 27.5059 124.164 26.3692 124.309 25.2567C124.452 24.1396 124.683 23.041 124.995 21.9471C125.307 20.8583 125.715 19.7699 126.22 18.6857C126.724 17.6016 127.333 16.5039 128.054 15.3905L129.192 16.0956C129.298 16.1625 129.385 16.2392 129.452 16.3256C129.519 16.412 129.553 16.5225 129.553 16.6568C129.553 16.8003 129.505 16.9633 129.409 17.1459C128.4 18.892 127.637 20.738 127.114 22.6764C126.59 24.6138 126.326 26.614 126.326 28.6667H126.326Z" fill="black"/>
<path d="M139.523 12.8924L138.572 20.634H135.893L138.414 0.000854492H144.105C145.2 0.000854492 146.151 0.129989 146.957 0.389186C147.764 0.648384 148.431 1.01721 148.955 1.49751C149.479 1.97689 149.867 2.55706 150.127 3.22875C150.387 3.90043 150.516 4.64876 150.516 5.47373C150.516 6.56255 150.338 7.55521 149.982 8.46194C149.627 9.37331 149.114 10.15 148.436 10.8021C147.759 11.4594 146.923 11.9676 145.929 12.3369C144.935 12.7066 143.797 12.8929 142.52 12.8929H139.523V12.8924ZM140.849 2.12971L139.783 10.7631H142.78C143.596 10.7631 144.316 10.6386 144.94 10.3892C145.565 10.1398 146.088 9.78951 146.511 9.34358C146.934 8.89811 147.255 8.36532 147.476 7.74705C147.697 7.12832 147.808 6.45664 147.808 5.72782C147.808 5.1718 147.726 4.67291 147.563 4.23116C147.399 3.78988 147.154 3.4113 146.828 3.09961C146.501 2.78792 146.088 2.54824 145.589 2.38008C145.089 2.21239 144.508 2.13064 143.846 2.13064H140.849V2.12971Z" fill="black"/>
<path d="M149.353 25.1049H152.577L153.856 14.6915L154.043 13.8953L150.997 16.2388C150.872 16.3321 150.74 16.3809 150.601 16.3809C150.497 16.3809 150.403 16.36 150.32 16.315C150.237 16.2699 150.178 16.2216 150.143 16.1663L149.686 15.3975L154.573 11.5514H156.029L154.365 25.1049H157.318L157.152 26.4757H149.196L149.353 25.1049H149.353Z" fill="black"/>
<path d="M139.331 53.2459L141.881 32.6128H147.99C149.065 32.6128 149.992 32.7233 150.765 32.9389C151.538 33.1544 152.172 33.4619 152.672 33.86C153.171 34.2576 153.54 34.7421 153.781 35.313C154.021 35.8885 154.141 36.5217 154.141 37.2268C154.141 37.8404 154.055 38.4257 153.877 38.9822C153.699 39.5433 153.431 40.0566 153.075 40.5267C152.72 40.9968 152.279 41.4139 151.745 41.7785C151.212 42.1432 150.588 42.4405 149.877 42.6611C151.116 42.9394 152.047 43.4238 152.672 44.1192C153.296 44.8141 153.609 45.6972 153.609 46.7716C153.609 47.721 153.44 48.5943 153.099 49.3854C152.759 50.1764 152.264 50.8579 151.62 51.4334C150.977 52.0089 150.194 52.4553 149.268 52.7717C148.341 53.088 147.294 53.2464 146.132 53.2464H139.332L139.331 53.2459ZM143.192 43.8071L142.284 51.1166H146.346C147.105 51.1166 147.773 51.0158 148.35 50.8142C148.926 50.6126 149.406 50.3251 149.79 49.9465C150.174 49.5726 150.462 49.1215 150.654 48.5943C150.846 48.0662 150.942 47.4669 150.942 46.8055C150.942 45.8941 150.634 45.1648 150.02 44.6232C149.405 44.0811 148.478 43.808 147.239 43.808H143.191L143.192 43.8071ZM143.422 41.9077H146.75C147.528 41.9077 148.21 41.8069 148.791 41.6006C149.372 41.3948 149.857 41.1069 150.246 40.7376C150.634 40.3678 150.923 39.927 151.115 39.4091C151.307 38.8907 151.403 38.3249 151.403 37.7015C151.403 36.7135 151.105 35.9749 150.509 35.4807C149.914 34.9869 148.992 34.7421 147.744 34.7421H144.315L143.422 41.9081L143.422 41.9077Z" fill="black"/>
<path fill-rule="evenodd" clip-rule="evenodd" d="M134.251 30.5866H159.381V28.6394H134.251V30.5866Z" fill="black"/>
<path d="M165.938 28.6667C165.938 26.614 165.678 24.6143 165.155 22.6764C164.632 20.7384 163.863 18.892 162.855 17.1459C162.759 16.9633 162.711 16.8003 162.711 16.6568C162.711 16.5225 162.745 16.412 162.812 16.3256C162.879 16.2392 162.966 16.1625 163.071 16.0956L164.209 15.3905C164.93 16.5039 165.545 17.6016 166.049 18.6857C166.553 19.7699 166.961 20.8583 167.273 21.9471C167.585 23.041 167.811 24.1391 167.955 25.2567C168.099 26.3692 168.171 27.5064 168.171 28.6667C168.171 29.8373 168.099 30.9786 167.955 32.0865C167.812 33.199 167.586 34.2975 167.273 35.3956C166.961 36.4896 166.553 37.5779 166.049 38.6621C165.545 39.7463 164.93 40.8439 164.209 41.9476L163.071 41.2568C162.966 41.1895 162.879 41.1128 162.812 41.0264C162.745 40.94 162.711 40.8295 162.711 40.6957C162.711 40.6186 162.721 40.542 162.74 40.4653C162.759 40.3887 162.797 40.2976 162.856 40.1871C163.855 38.4312 164.618 36.5852 165.146 34.6524C165.674 32.7196 165.938 30.7245 165.938 28.6667H165.938Z" fill="black"/>
<path d="M127.295 79.6827V97.572L131.094 94.536L131.924 95.419L126.791 100.704H125.821L120.683 95.4766L121.513 94.536L125.297 97.572V79.6827H127.295Z" fill="black"/>
<path d="M142.628 91.4329C142.628 93.4907 142.892 95.4853 143.42 97.4186C143.948 99.3515 144.711 101.198 145.71 102.953C145.768 103.064 145.807 103.155 145.826 103.232C145.845 103.308 145.855 103.385 145.855 103.462C145.855 103.596 145.821 103.706 145.754 103.793C145.687 103.879 145.6 103.956 145.495 104.023L144.357 104.714C143.636 103.61 143.026 102.512 142.522 101.428C142.018 100.344 141.609 99.2558 141.297 98.1619C140.986 97.0638 140.755 95.9657 140.611 94.8527C140.467 93.7444 140.395 92.6031 140.395 91.4329C140.395 90.2721 140.467 89.1355 140.611 88.023C140.755 86.9058 140.985 85.8072 141.297 84.7133C141.609 83.6245 142.018 82.5362 142.522 81.452C143.026 80.3678 143.636 79.2702 144.357 78.1567L145.495 78.8619C145.6 78.9288 145.687 79.0054 145.754 79.0918C145.821 79.1782 145.855 79.2888 145.855 79.423C145.855 79.5665 145.807 79.7296 145.711 79.9121C144.703 81.6582 143.939 83.5042 143.416 85.4426C142.892 87.3801 142.628 89.3803 142.628 91.4329H142.628Z" fill="black"/>
<path d="M155.081 81.1264H163.249L162.975 83.4002H152.113L154.663 62.7666H157.357L155.081 81.1264Z" fill="black"/>
<path d="M173.324 74.2034C173.982 74.2034 174.589 74.3311 175.144 74.5843C175.698 74.837 176.177 75.2141 176.576 75.7163C176.974 76.2184 177.286 76.8516 177.511 77.6101C177.736 78.3682 177.848 79.2545 177.848 80.2652C177.848 81.8125 177.678 83.1592 177.338 84.3051C176.998 85.4548 176.537 86.407 175.955 87.1614C175.372 87.9162 174.697 88.4806 173.924 88.8513C173.151 89.2215 172.326 89.4082 171.453 89.4082C170.787 89.4082 170.177 89.2805 169.622 89.0273C169.068 88.7746 168.593 88.397 168.194 87.8953C167.796 87.3932 167.484 86.76 167.258 86.0015C167.033 85.2434 166.918 84.3539 166.918 83.3361C166.918 81.7884 167.088 80.4418 167.428 79.2995C167.768 78.1573 168.229 77.205 168.811 76.4507C169.393 75.6958 170.073 75.1315 170.849 74.7608C171.626 74.3901 172.451 74.2038 173.324 74.2038L173.324 74.2034ZM171.681 87.8916C172.263 87.8916 172.818 87.7364 173.341 87.428C173.865 87.12 174.322 86.6555 174.714 86.0326C175.105 85.406 175.414 84.6205 175.643 83.6645C175.871 82.7123 175.985 81.591 175.985 80.3029C175.985 79.4723 175.909 78.7626 175.754 78.1773C175.597 77.5924 175.386 77.1145 175.123 76.7475C174.859 76.3805 174.554 76.1144 174.204 75.9476C173.854 75.7813 173.483 75.6986 173.094 75.6986C172.512 75.6986 171.961 75.8547 171.438 76.1622C170.914 76.4702 170.457 76.938 170.065 77.5646C169.673 78.1912 169.361 78.9804 169.132 79.9354C168.903 80.8877 168.79 82.0095 168.79 83.2971C168.79 84.1281 168.87 84.8374 169.025 85.4227C169.181 86.008 169.389 86.4823 169.652 86.8455C169.916 87.2088 170.224 87.4759 170.575 87.6417C170.925 87.808 171.292 87.8907 171.68 87.8907L171.681 87.8916Z" fill="black"/>
<path d="M155.081 113.739H163.249L162.975 116.013H152.113L154.663 95.3795H157.357L155.081 113.739Z" fill="black"/>
<path d="M168.634 120.484H171.857L173.137 110.071L173.324 109.274L170.277 111.618C170.153 111.711 170.021 111.76 169.882 111.76C169.778 111.76 169.684 111.739 169.601 111.694C169.518 111.649 169.459 111.601 169.424 111.545L168.966 110.777L173.854 106.931H175.31L173.646 120.484H176.599L176.432 121.855H168.477L168.633 120.484H168.634Z" fill="black"/>
<path fill-rule="evenodd" clip-rule="evenodd" d="M150.716 93.3527H178.879V91.4055H150.716V93.3527Z" fill="black"/>
<path d="M185.218 91.4329C185.218 89.3803 184.959 87.3805 184.436 85.4426C183.912 83.5047 183.144 81.6582 182.136 79.9121C182.04 79.7296 181.992 79.5665 181.992 79.423C181.992 79.2888 182.026 79.1782 182.093 79.0918C182.16 79.0054 182.247 78.9288 182.352 78.8619L183.49 78.1567C184.211 79.2702 184.825 80.3678 185.33 81.452C185.834 82.5362 186.242 83.6245 186.554 84.7133C186.866 85.8072 187.092 86.9053 187.236 88.023C187.38 89.1355 187.452 90.2726 187.452 91.4329C187.452 92.6035 187.38 93.7448 187.236 94.8527C187.092 95.9652 186.867 97.0638 186.554 98.1619C186.242 99.2558 185.834 100.344 185.33 101.428C184.825 102.512 184.211 103.61 183.49 104.714L182.352 104.023C182.247 103.956 182.16 103.879 182.093 103.793C182.026 103.706 181.992 103.596 181.992 103.462C181.992 103.385 182.001 103.308 182.021 103.232C182.04 103.155 182.078 103.064 182.136 102.953C183.135 101.197 183.899 99.3515 184.427 97.4186C184.955 95.4858 185.219 93.4907 185.219 91.4329H185.218Z" fill="black"/>
<path fill-rule="evenodd" clip-rule="evenodd" d="M111.882 58.9316H193.166V56.9839H111.882V58.9316Z" fill="black"/>
<path d="M208.488 49.2943L207.725 55.4811H213.631L213.401 57.3522H207.494L206.73 63.5534H204.699L205.463 57.3522H199.599L199.83 55.4811H205.694L206.471 49.2943H208.488Z" fill="black"/>
<path d="M261.996 28.6667C261.996 30.7245 262.26 32.7191 262.788 34.6524C263.316 36.5852 264.08 38.4317 265.079 40.1871C265.136 40.2976 265.175 40.3887 265.194 40.4653C265.214 40.542 265.223 40.6186 265.223 40.6957C265.223 40.8295 265.189 40.94 265.122 41.0264C265.055 41.1128 264.968 41.1895 264.863 41.2568L263.725 41.9476C263.004 40.8439 262.395 39.7463 261.89 38.6621C261.386 37.5779 260.978 36.4896 260.665 35.3956C260.354 34.2975 260.123 33.1994 259.979 32.0865C259.835 30.9781 259.763 29.8368 259.763 28.6667C259.763 27.5059 259.835 26.3692 259.979 25.2567C260.123 24.1396 260.353 23.041 260.665 21.9471C260.978 20.8583 261.386 19.7699 261.89 18.6857C262.395 17.6016 263.004 16.5039 263.725 15.3905L264.863 16.0956C264.968 16.1625 265.055 16.2392 265.122 16.3256C265.189 16.412 265.223 16.5225 265.223 16.6568C265.223 16.8003 265.175 16.9633 265.079 17.1459C264.071 18.892 263.308 20.738 262.784 22.6764C262.26 24.6138 261.997 26.614 261.997 28.6667H261.996Z" fill="black"/>
<path d="M275.356 12.8924L274.405 20.634H271.726L274.247 0.000854492H279.938C281.033 0.000854492 281.984 0.129989 282.79 0.389186C283.597 0.648384 284.264 1.01721 284.788 1.49751C285.312 1.97689 285.7 2.55706 285.96 3.22875C286.22 3.90043 286.349 4.64876 286.349 5.47373C286.349 6.56255 286.171 7.55521 285.815 8.46194C285.46 9.37331 284.947 10.15 284.269 10.8021C283.592 11.4594 282.756 11.9676 281.762 12.3369C280.768 12.7066 279.63 12.8929 278.353 12.8929H275.356V12.8924ZM276.682 2.12971L275.616 10.7631H278.613C279.429 10.7631 280.149 10.6386 280.773 10.3892C281.398 10.1398 281.921 9.78951 282.344 9.34358C282.767 8.89811 283.088 8.36532 283.309 7.74705C283.53 7.12832 283.641 6.45664 283.641 5.72782C283.641 5.1718 283.559 4.67291 283.396 4.23116C283.232 3.78988 282.987 3.4113 282.661 3.09961C282.334 2.78792 281.921 2.54824 281.422 2.38008C280.922 2.21239 280.341 2.13064 279.679 2.13064H276.682V2.12971Z" fill="black"/>
<path d="M290.084 11.4371C290.66 11.4371 291.193 11.5198 291.682 11.6829C292.171 11.8454 292.59 12.0805 292.944 12.3959C293.297 12.7071 293.575 13.0885 293.772 13.5349C293.97 13.9817 294.066 14.4908 294.066 15.0585C294.066 15.6916 293.97 16.2662 293.772 16.7892C293.574 17.3086 293.304 17.8 292.964 18.2673C292.625 18.7314 292.229 19.1815 291.775 19.6214C291.321 20.0575 290.836 20.5077 290.323 20.9712L285.841 25.0529C286.125 24.9702 286.409 24.908 286.693 24.8629C286.978 24.8179 287.251 24.7932 287.515 24.7932H292.611C292.791 24.7932 292.93 24.842 293.026 24.9391C293.123 25.0357 293.172 25.1639 293.172 25.3228C293.172 25.3925 293.165 25.4858 293.151 25.6033C293.137 25.7209 293.124 25.8282 293.11 25.9253L293.037 26.4757H283.137L283.21 25.863C283.224 25.7455 283.266 25.6136 283.334 25.4719C283.404 25.3298 283.501 25.2053 283.626 25.0942L289.012 20.2856C289.518 19.836 289.969 19.4063 290.364 19.0012C290.759 18.5967 291.095 18.1949 291.369 17.7968C291.643 17.3987 291.851 16.9936 291.993 16.5784C292.135 16.1626 292.204 15.7162 292.204 15.2387C292.204 14.8648 292.145 14.5359 292.024 14.2516C291.903 13.9678 291.733 13.7323 291.518 13.5456C291.303 13.3584 291.05 13.2162 290.756 13.1191C290.461 13.0225 290.139 12.9742 289.792 12.9742C289.016 12.9742 288.357 13.1749 287.813 13.5799C287.269 13.9854 286.866 14.5424 286.61 15.2489C286.534 15.4496 286.437 15.5917 286.315 15.6749C286.194 15.758 286.045 15.7994 285.871 15.7994C285.837 15.7994 285.799 15.7956 285.757 15.7924C285.716 15.7891 285.674 15.7859 285.633 15.7785L284.728 15.6261C284.902 14.9442 285.162 14.3417 285.504 13.8224C285.848 13.3031 286.25 12.8636 286.714 12.5102C287.179 12.1571 287.699 11.8872 288.27 11.707C288.842 11.5272 289.446 11.4371 290.083 11.4371H290.084Z" fill="black"/>
<path d="M275.125 53.4304L277.675 32.7972H283.784C284.859 32.7972 285.786 32.9078 286.559 33.1233C287.332 33.3389 287.966 33.6464 288.466 34.0445C288.965 34.4421 289.334 34.9266 289.575 35.4974C289.815 36.073 289.935 36.7061 289.935 37.4112C289.935 38.0249 289.849 38.6101 289.671 39.1666C289.493 39.7278 289.225 40.241 288.869 40.7111C288.514 41.1812 288.073 41.5983 287.539 41.963C287.006 42.3276 286.381 42.6249 285.671 42.8456C286.91 43.1238 287.841 43.6083 288.466 44.3037C289.09 44.9986 289.403 45.8816 289.403 46.956C289.403 47.9055 289.234 48.7788 288.893 49.5698C288.553 50.3609 288.058 51.0423 287.414 51.6179C286.771 52.1934 285.988 52.6398 285.062 52.9561C284.135 53.2725 283.088 53.4309 281.925 53.4309H275.126L275.125 53.4304ZM278.986 43.9915L278.078 51.3011H282.14C282.899 51.3011 283.567 51.2003 284.143 50.9987C284.72 50.7971 285.2 50.5095 285.584 50.131C285.968 49.757 286.256 49.306 286.448 48.7788C286.64 48.2506 286.736 47.6514 286.736 46.9899C286.736 46.0786 286.428 45.3493 285.814 44.8077C285.199 44.2656 284.272 43.9924 283.033 43.9924H278.985L278.986 43.9915ZM279.216 42.0921H282.544C283.322 42.0921 284.003 41.9913 284.585 41.7851C285.166 41.5793 285.651 41.2913 286.04 40.922C286.428 40.5523 286.717 40.1114 286.909 39.5935C287.101 39.0751 287.197 38.5093 287.197 37.886C287.197 36.898 286.899 36.1594 286.303 35.6651C285.708 35.1714 284.786 34.9266 283.537 34.9266H280.109L279.216 42.0926L279.216 42.0921Z" fill="black"/>
<path fill-rule="evenodd" clip-rule="evenodd" d="M270.083 30.5866H295.213V28.6394H270.083V30.5866Z" fill="black"/>
<path d="M301.77 28.6667C301.77 26.614 301.511 24.6143 300.988 22.6764C300.464 20.7384 299.696 18.892 298.688 17.1459C298.591 16.9633 298.543 16.8003 298.543 16.6568C298.543 16.5225 298.577 16.412 298.644 16.3256C298.712 16.2392 298.798 16.1625 298.904 16.0956L300.042 15.3905C300.762 16.5039 301.377 17.6016 301.881 18.6857C302.386 19.7699 302.794 20.8583 303.106 21.9471C303.418 23.041 303.644 24.1391 303.788 25.2567C303.932 26.3692 304.004 27.5064 304.004 28.6667C304.004 29.8373 303.932 30.9786 303.788 32.0865C303.644 33.199 303.418 34.2975 303.106 35.3956C302.794 36.4896 302.386 37.5779 301.881 38.6621C301.377 39.7463 300.763 40.8439 300.042 41.9476L298.904 41.2568C298.798 41.1895 298.712 41.1128 298.644 41.0264C298.577 40.94 298.543 40.8295 298.543 40.6957C298.543 40.6186 298.553 40.542 298.573 40.4653C298.592 40.3887 298.63 40.2976 298.688 40.1871C299.687 38.4312 300.451 36.5852 300.979 34.6524C301.507 32.7196 301.771 30.7245 301.771 28.6667H301.77Z" fill="black"/>
<path d="M239.568 79.6827V97.572L243.367 94.536L244.198 95.419L239.064 100.704H238.094L232.956 95.4766L233.787 94.536L237.571 97.572V79.6827H239.568Z" fill="black"/>
<path d="M255.063 91.4329C255.063 93.4907 255.328 95.4853 255.855 97.4186C256.384 99.3515 257.147 101.198 258.146 102.953C258.204 103.064 258.242 103.155 258.261 103.232C258.281 103.308 258.291 103.385 258.291 103.462C258.291 103.596 258.257 103.706 258.19 103.793C258.122 103.879 258.036 103.956 257.93 104.023L256.792 104.714C256.072 103.61 255.462 102.512 254.957 101.428C254.453 100.344 254.045 99.2558 253.733 98.1619C253.421 97.0638 253.191 95.9657 253.046 94.8527C252.902 93.7444 252.83 92.6031 252.83 91.4329C252.83 90.2721 252.902 89.1355 253.046 88.023C253.19 86.9058 253.421 85.8072 253.733 84.7133C254.045 83.6245 254.453 82.5362 254.957 81.452C255.462 80.3678 256.071 79.2702 256.792 78.1567L257.93 78.8619C258.036 78.9288 258.122 79.0054 258.19 79.0918C258.257 79.1782 258.291 79.2888 258.291 79.423C258.291 79.5665 258.243 79.7296 258.146 79.9121C257.138 81.6582 256.375 83.5042 255.851 85.4426C255.328 87.3801 255.064 89.3803 255.064 91.4329H255.063Z" fill="black"/>
<path d="M290.913 81.1264H299.082L298.808 83.4002H287.946L290.496 62.7666H293.19L290.913 81.1264Z" fill="black"/>
<path d="M309.157 74.2034C309.815 74.2034 310.422 74.3311 310.976 74.5843C311.531 74.837 312.01 75.2141 312.408 75.7163C312.807 76.2184 313.119 76.8516 313.344 77.6101C313.569 78.3682 313.68 79.2545 313.68 80.2652C313.68 81.8125 313.511 83.1592 313.171 84.3051C312.831 85.4548 312.37 86.407 311.788 87.1614C311.205 87.9162 310.53 88.4806 309.757 88.8513C308.984 89.2215 308.159 89.4082 307.286 89.4082C306.62 89.4082 306.01 89.2805 305.455 89.0273C304.901 88.7746 304.426 88.397 304.027 87.8953C303.629 87.3932 303.317 86.76 303.091 86.0015C302.866 85.2434 302.751 84.3539 302.751 83.3361C302.751 81.7884 302.921 80.4418 303.261 79.2995C303.601 78.1573 304.062 77.205 304.644 76.4507C305.226 75.6958 305.906 75.1315 306.682 74.7608C307.459 74.3901 308.284 74.2038 309.157 74.2038L309.157 74.2034ZM307.514 87.8916C308.096 87.8916 308.651 87.7364 309.174 87.428C309.697 87.12 310.155 86.6555 310.547 86.0326C310.938 85.406 311.247 84.6205 311.476 83.6645C311.704 82.7123 311.818 81.591 311.818 80.3029C311.818 79.4723 311.742 78.7626 311.587 78.1773C311.43 77.5924 311.219 77.1145 310.956 76.7475C310.692 76.3805 310.387 76.1144 310.037 75.9476C309.687 75.7813 309.316 75.6986 308.927 75.6986C308.345 75.6986 307.794 75.8547 307.271 76.1622C306.747 76.4702 306.29 76.938 305.898 77.5646C305.506 78.1912 305.194 78.9804 304.965 79.9354C304.736 80.8877 304.623 82.0095 304.623 83.2971C304.623 84.1281 304.702 84.8374 304.858 85.4227C305.014 86.008 305.222 86.4823 305.485 86.8455C305.749 87.2088 306.057 87.4759 306.407 87.6417C306.758 87.808 307.125 87.8907 307.513 87.8907L307.514 87.8916Z" fill="black"/>
<path d="M267.517 113.739H275.685L275.411 116.013H264.549L267.099 95.3795H269.793L267.517 113.739Z" fill="black"/>
<path d="M281.069 120.484H284.293L285.572 110.071L285.759 109.274L282.713 111.618C282.588 111.711 282.456 111.76 282.317 111.76C282.213 111.76 282.119 111.739 282.037 111.694C281.953 111.649 281.894 111.601 281.86 111.545L281.402 110.777L286.289 106.931H287.745L286.081 120.484H289.034L288.868 121.855H280.913L281.069 120.484H281.069Z" fill="black"/>
<path d="M292.755 106.286H299.872V108.473H292.755V106.286Z" fill="black"/>
<path d="M317.745 116.027H315.022L316.189 106.603H306.119L304.966 116.027H302.244L304.794 95.3795H307.502L306.364 104.646H316.434L317.572 95.3795H320.281L317.745 116.027Z" fill="black"/>
<path d="M321.403 111.324H322.786C322.925 111.324 323.039 111.358 323.126 111.427C323.213 111.497 323.261 111.59 323.275 111.708L324.242 118.487C324.277 118.729 324.298 118.964 324.301 119.189C324.305 119.414 324.308 119.636 324.316 119.861C324.398 119.636 324.485 119.414 324.572 119.189C324.658 118.964 324.749 118.729 324.846 118.487L327.726 111.666C327.768 111.563 327.837 111.476 327.931 111.407C328.024 111.337 328.128 111.303 328.246 111.303H329.016C329.154 111.303 329.262 111.338 329.338 111.407C329.414 111.476 329.46 111.563 329.473 111.666L330.648 118.487C330.69 118.729 330.724 118.964 330.749 119.193C330.773 119.421 330.794 119.65 330.815 119.882C330.884 119.657 330.953 119.432 331.019 119.2C331.085 118.967 331.165 118.729 331.262 118.487L333.924 111.708C333.965 111.597 334.035 111.507 334.132 111.434C334.229 111.361 334.34 111.323 334.465 111.323H335.796L331.377 121.854H329.973C329.813 121.854 329.713 121.737 329.671 121.501L328.392 114.359C328.371 114.248 328.354 114.134 328.34 114.02C328.326 113.906 328.313 113.795 328.299 113.684C328.264 113.802 328.229 113.916 328.195 114.026C328.16 114.137 328.119 114.252 328.07 114.369L325.024 121.501C324.927 121.736 324.788 121.854 324.607 121.854H323.256L321.405 111.323L321.403 111.324Z" fill="black"/>
<path fill-rule="evenodd" clip-rule="evenodd" d="M263.151 93.3527H338.108V91.4055H263.151V93.3527Z" fill="black"/>
<path d="M344.448 91.4329C344.448 89.3803 344.189 87.3805 343.666 85.4426C343.142 83.5047 342.374 81.6582 341.366 79.9121C341.27 79.7296 341.222 79.5665 341.222 79.423C341.222 79.2888 341.256 79.1782 341.323 79.0918C341.39 79.0054 341.477 78.9288 341.582 78.8619L342.72 78.1567C343.441 79.2702 344.055 80.3678 344.56 81.452C345.064 82.5362 345.472 83.6245 345.784 84.7133C346.096 85.8072 346.322 86.9053 346.466 88.023C346.61 89.1355 346.682 90.2726 346.682 91.4329C346.682 92.6035 346.61 93.7448 346.466 94.8527C346.322 95.9652 346.097 97.0638 345.784 98.1619C345.472 99.2558 345.064 100.344 344.56 101.428C344.055 102.512 343.441 103.61 342.72 104.714L341.582 104.023C341.477 103.956 341.39 103.879 341.323 103.793C341.256 103.706 341.222 103.596 341.222 103.462C341.222 103.385 341.231 103.308 341.251 103.232C341.27 103.155 341.308 103.064 341.366 102.953C342.365 101.197 343.129 99.3515 343.657 97.4186C344.185 95.4858 344.449 93.4907 344.449 91.4329H344.448Z" fill="black"/>
<path fill-rule="evenodd" clip-rule="evenodd" d="M224.156 58.9316H351.973V56.9839H224.156V58.9316Z" fill="black"/>
<path d="M367.502 49.2943L366.738 55.4811H372.644L372.414 57.3522H366.507L365.743 63.5534H363.712L364.476 57.3522H358.612L358.843 55.4811H364.707L365.485 49.2943H367.502Z" fill="black"/>
<path d="M418.879 28.6667C418.879 30.7245 419.143 32.7191 419.671 34.6524C420.199 36.5852 420.962 38.4317 421.961 40.1871C422.019 40.2976 422.058 40.3887 422.077 40.4653C422.096 40.542 422.106 40.6186 422.106 40.6957C422.106 40.8295 422.072 40.94 422.005 41.0264C421.938 41.1128 421.851 41.1895 421.746 41.2568L420.608 41.9476C419.887 40.8439 419.277 39.7463 418.773 38.6621C418.269 37.5779 417.86 36.4896 417.548 35.3956C417.237 34.2975 417.006 33.1994 416.862 32.0865C416.718 30.9781 416.646 29.8368 416.646 28.6667C416.646 27.5059 416.718 26.3692 416.862 25.2567C417.006 24.1396 417.236 23.041 417.548 21.9471C417.86 20.8583 418.269 19.7699 418.773 18.6857C419.277 17.6016 419.887 16.5039 420.608 15.3905L421.746 16.0956C421.851 16.1625 421.938 16.2392 422.005 16.3256C422.072 16.412 422.106 16.5225 422.106 16.6568C422.106 16.8003 422.058 16.9633 421.962 17.1459C420.954 18.892 420.19 20.738 419.667 22.6764C419.143 24.6138 418.879 26.614 418.879 28.6667H418.879Z" fill="black"/>
<path d="M432.239 12.8924L431.288 20.634H428.609L431.13 0.000854492H436.821C437.916 0.000854492 438.866 0.129989 439.673 0.389186C440.48 0.648384 441.147 1.01721 441.671 1.49751C442.194 1.97689 442.583 2.55706 442.843 3.22875C443.102 3.90043 443.232 4.64876 443.232 5.47373C443.232 6.56255 443.054 7.55521 442.698 8.46194C442.343 9.37331 441.829 10.15 441.152 10.8021C440.475 11.4594 439.639 11.9676 438.645 12.3369C437.651 12.7066 436.513 12.8929 435.236 12.8929H432.239V12.8924ZM433.564 2.12971L432.498 10.7631H435.495C436.312 10.7631 437.032 10.6386 437.656 10.3892C438.28 10.1398 438.804 9.78951 439.227 9.34358C439.65 8.89811 439.971 8.36532 440.192 7.74705C440.413 7.12832 440.523 6.45664 440.523 5.72782C440.523 5.1718 440.442 4.67291 440.278 4.23116C440.115 3.78988 439.87 3.4113 439.543 3.09961C439.217 2.78792 438.804 2.54824 438.304 2.38008C437.805 2.21239 437.224 2.13064 436.561 2.13064H433.564V2.12971Z" fill="black"/>
<path d="M447.196 11.4371C447.778 11.4371 448.312 11.5165 448.793 11.6758C449.276 11.8351 449.685 12.0637 450.024 12.3577C450.364 12.6522 450.627 13.009 450.814 13.4242C451.002 13.8391 451.095 14.2998 451.095 14.8052C451.095 15.352 451.023 15.8374 450.877 16.2559C450.731 16.6749 450.526 17.0419 450.259 17.3531C449.993 17.6648 449.671 17.9244 449.292 18.1284C448.914 18.3327 448.492 18.499 448.027 18.6235C448.873 18.866 449.511 19.2539 449.938 19.7904C450.364 20.3269 450.575 20.9842 450.575 21.7604C450.575 22.5082 450.426 23.1799 450.128 23.7787C449.83 24.377 449.428 24.8898 448.922 25.3157C448.416 25.7417 447.83 26.0706 447.161 26.2991C446.492 26.5277 445.788 26.6415 445.054 26.6415C444.36 26.6415 443.754 26.5616 443.234 26.4027C442.714 26.2466 442.27 26.0083 441.903 25.6929C441.535 25.3743 441.237 24.9762 441.008 24.4954C440.779 24.0137 440.61 23.4461 440.499 22.7921L441.331 22.4562C441.483 22.3972 441.622 22.3661 441.747 22.3661C441.879 22.3661 441.993 22.3935 442.087 22.4492C442.18 22.5045 442.243 22.5877 442.277 22.6982C442.388 23.1 442.52 23.4493 442.673 23.7508C442.825 24.0523 443.016 24.3013 443.244 24.5019C443.473 24.7026 443.747 24.855 444.066 24.9558C444.385 25.0561 444.77 25.1044 445.22 25.1044C445.788 25.1044 446.295 25.0073 446.739 24.8136C447.182 24.6194 447.556 24.3667 447.859 24.0588C448.16 23.7476 448.389 23.3945 448.548 22.9997C448.707 22.6044 448.787 22.2063 448.787 21.798C448.787 21.4659 448.735 21.1612 448.631 20.8806C448.527 20.6005 448.34 20.358 448.07 20.1536C447.799 19.9492 447.435 19.7904 446.978 19.6719C446.52 19.5544 445.938 19.4954 445.23 19.4954L445.397 18.1869C446.714 18.1869 447.695 17.9165 448.34 17.38C448.985 16.844 449.307 16.1101 449.307 15.1787C449.307 14.8117 449.248 14.4898 449.13 14.2125C449.012 13.9357 448.846 13.7034 448.631 13.5199C448.416 13.3365 448.163 13.198 447.872 13.1079C447.581 13.0178 447.262 12.9732 446.915 12.9732C446.125 12.9732 445.459 13.1776 444.919 13.5859C444.378 13.9905 443.976 14.5446 443.713 15.2437C443.637 15.4444 443.539 15.5833 443.418 15.6664C443.297 15.7491 443.151 15.7905 442.984 15.7905C442.95 15.7905 442.915 15.7905 442.877 15.7872C442.839 15.7835 442.801 15.7765 442.766 15.77L441.851 15.6177C442.025 14.939 442.285 14.337 442.628 13.8177C442.971 13.2984 443.373 12.8617 443.837 12.5087C444.302 12.1524 444.818 11.8858 445.387 11.7056C445.955 11.5258 446.559 11.4357 447.196 11.4357L447.196 11.4371Z" fill="black"/>
<path d="M432.047 53.2459L434.597 32.6128H440.705C441.781 32.6128 442.708 32.7233 443.481 32.9389C444.254 33.1544 444.888 33.4619 445.387 33.86C445.887 34.2576 446.256 34.7421 446.497 35.313C446.737 35.8885 446.857 36.5217 446.857 37.2268C446.857 37.8404 446.771 38.4257 446.593 38.9822C446.415 39.5433 446.147 40.0566 445.791 40.5267C445.436 40.9968 444.994 41.4139 444.461 41.7785C443.928 42.1432 443.303 42.4405 442.593 42.6611C443.832 42.9394 444.763 43.4238 445.388 44.1192C446.012 44.8141 446.325 45.6972 446.325 46.7716C446.325 47.721 446.156 48.5943 445.815 49.3854C445.474 50.1764 444.98 50.8579 444.336 51.4334C443.693 52.0089 442.91 52.4553 441.983 52.7717C441.057 53.088 440.01 53.2464 438.847 53.2464H432.048L432.047 53.2459ZM435.908 43.8071L435 51.1166H439.062C439.821 51.1166 440.489 51.0158 441.065 50.8142C441.642 50.6126 442.122 50.3251 442.506 49.9465C442.889 49.5726 443.178 49.1215 443.37 48.5943C443.562 48.0662 443.658 47.4669 443.658 46.8055C443.658 45.8941 443.35 45.1648 442.736 44.6232C442.121 44.0811 441.194 43.808 439.955 43.808H435.907L435.908 43.8071ZM436.138 41.9077H439.466C440.244 41.9077 440.925 41.8069 441.507 41.6006C442.088 41.3948 442.573 41.1069 442.962 40.7376C443.35 40.3678 443.639 39.927 443.831 39.4091C444.023 38.8907 444.119 38.3249 444.119 37.7015C444.119 36.7135 443.821 35.9749 443.225 35.4807C442.63 34.9869 441.708 34.7421 440.459 34.7421H437.031L436.138 41.9081L436.138 41.9077Z" fill="black"/>
<path fill-rule="evenodd" clip-rule="evenodd" d="M426.966 30.5866H452.097V28.6394H426.966V30.5866Z" fill="black"/>
<path d="M458.653 28.6667C458.653 26.614 458.394 24.6143 457.871 22.6764C457.347 20.7384 456.579 18.892 455.57 17.1459C455.474 16.9633 455.426 16.8003 455.426 16.6568C455.426 16.5225 455.46 16.412 455.527 16.3256C455.595 16.2392 455.681 16.1625 455.787 16.0956L456.925 15.3905C457.645 16.5039 458.26 17.6016 458.764 18.6857C459.268 19.7699 459.677 20.8583 459.989 21.9471C460.301 23.041 460.526 24.1391 460.671 25.2567C460.815 26.3692 460.887 27.5064 460.887 28.6667C460.887 29.8373 460.815 30.9786 460.671 32.0865C460.527 33.199 460.301 34.2975 459.989 35.3956C459.677 36.4896 459.268 37.5779 458.764 38.6621C458.26 39.7463 457.646 40.8439 456.925 41.9476L455.787 41.2568C455.681 41.1895 455.595 41.1128 455.527 41.0264C455.46 40.94 455.426 40.8295 455.426 40.6957C455.426 40.6186 455.436 40.542 455.456 40.4653C455.475 40.3887 455.513 40.2976 455.571 40.1871C456.57 38.4312 457.334 36.5852 457.861 34.6524C458.39 32.7196 458.654 30.7245 458.654 28.6667H458.653Z" fill="black"/>
<path d="M398.834 79.6827V97.572L402.633 94.536L403.463 95.419L398.33 100.704H397.36L392.222 95.4766L393.052 94.536L396.837 97.572V79.6827H398.834Z" fill="black"/>
<path d="M414.33 91.4329C414.33 93.4907 414.594 95.4853 415.122 97.4186C415.65 99.3515 416.413 101.198 417.412 102.953C417.47 103.064 417.508 103.155 417.527 103.232C417.547 103.308 417.557 103.385 417.557 103.462C417.557 103.596 417.523 103.706 417.456 103.793C417.388 103.879 417.302 103.956 417.196 104.023L416.058 104.714C415.338 103.61 414.728 102.512 414.223 101.428C413.719 100.344 413.311 99.2558 412.999 98.1619C412.687 97.0638 412.457 95.9657 412.312 94.8527C412.168 93.7444 412.096 92.6031 412.096 91.4329C412.096 90.2721 412.168 89.1355 412.312 88.023C412.456 86.9058 412.687 85.8072 412.999 84.7133C413.311 83.6245 413.719 82.5362 414.223 81.452C414.728 80.3678 415.337 79.2702 416.058 78.1567L417.196 78.8619C417.302 78.9288 417.388 79.0054 417.456 79.0918C417.523 79.1782 417.557 79.2888 417.557 79.423C417.557 79.5665 417.509 79.7296 417.413 79.9121C416.404 81.6582 415.641 83.5042 415.117 85.4426C414.594 87.3801 414.33 89.3803 414.33 91.4329H414.33Z" fill="black"/>
<path d="M447.796 81.1264H455.965L455.691 83.4002H444.829L447.379 62.7666H450.072L447.796 81.1264Z" fill="black"/>
<path d="M466.039 74.2034C466.697 74.2034 467.304 74.3311 467.859 74.5843C468.414 74.837 468.892 75.2141 469.291 75.7163C469.689 76.2184 470.001 76.8516 470.227 77.6101C470.452 78.3682 470.563 79.2545 470.563 80.2652C470.563 81.8125 470.393 83.1592 470.053 84.3051C469.713 85.4548 469.252 86.407 468.67 87.1614C468.088 87.9162 467.412 88.4806 466.639 88.8513C465.866 89.2215 465.041 89.4082 464.168 89.4082C463.502 89.4082 462.892 89.2805 462.337 89.0273C461.783 88.7746 461.308 88.397 460.91 87.8953C460.511 87.3932 460.199 86.76 459.974 86.0015C459.749 85.2434 459.634 84.3539 459.634 83.3361C459.634 81.7884 459.804 80.4418 460.144 79.2995C460.483 78.1573 460.944 77.205 461.527 76.4507C462.109 75.6958 462.788 75.1315 463.565 74.7608C464.341 74.3901 465.166 74.2038 466.039 74.2038L466.039 74.2034ZM464.396 87.8916C464.979 87.8916 465.533 87.7364 466.056 87.428C466.58 87.12 467.037 86.6555 467.429 86.0326C467.821 85.406 468.129 84.6205 468.358 83.6645C468.587 82.7123 468.701 81.591 468.701 80.3029C468.701 79.4723 468.624 78.7626 468.469 78.1773C468.313 77.5924 468.102 77.1145 467.838 76.7475C467.574 76.3805 467.27 76.1144 466.919 75.9476C466.569 75.7813 466.198 75.6986 465.81 75.6986C465.227 75.6986 464.676 75.8547 464.153 76.1622C463.629 76.4702 463.172 76.938 462.78 77.5646C462.388 78.1912 462.076 78.9804 461.848 79.9354C461.619 80.8877 461.505 82.0095 461.505 83.2971C461.505 84.1281 461.585 84.8374 461.74 85.4227C461.896 86.008 462.104 86.4823 462.368 86.8455C462.631 87.2088 462.94 87.4759 463.29 87.6417C463.64 87.808 464.007 87.8907 464.396 87.8907L464.396 87.8916Z" fill="black"/>
<path d="M426.566 113.739H434.734L434.46 116.013H423.598L426.148 95.3795H428.842L426.566 113.739Z" fill="black"/>
<path d="M440.12 120.484H443.343L444.623 110.071L444.81 109.274L441.763 111.618C441.639 111.711 441.506 111.76 441.367 111.76C441.264 111.76 441.17 111.739 441.087 111.694C441.004 111.649 440.945 111.601 440.91 111.545L440.452 110.777L445.34 106.931H446.795L445.131 120.484H448.085L447.918 121.855H439.963L440.119 120.484H440.12Z" fill="black"/>
<path d="M451.804 106.286H458.921V108.473H451.804V106.286Z" fill="black"/>
<path d="M477.011 116.027H474.288L475.455 106.603H465.385L464.232 116.027H461.51L464.06 95.3795H466.768L465.63 104.646H475.7L476.838 95.3795H479.546L477.011 116.027Z" fill="black"/>
<path d="M487.688 121.855C487.445 121.855 487.282 121.792 487.195 121.668C487.109 121.543 487.064 121.391 487.064 121.21L487.261 119.03C486.997 119.479 486.71 119.885 486.398 120.252C486.086 120.619 485.76 120.93 485.417 121.186C485.074 121.446 484.717 121.647 484.346 121.788C483.975 121.93 483.597 121.999 483.216 121.999C482.315 121.999 481.618 121.67 481.123 121.016C480.627 120.362 480.377 119.41 480.377 118.164C480.377 117.596 480.436 117.024 480.554 116.457C480.672 115.889 480.842 115.346 481.06 114.826C481.279 114.307 481.543 113.822 481.851 113.376C482.159 112.929 482.502 112.541 482.88 112.216C483.258 111.89 483.667 111.634 484.111 111.447C484.554 111.26 485.019 111.167 485.504 111.167C486.017 111.167 486.488 111.267 486.915 111.468C487.342 111.668 487.702 111.956 488 112.33L488.718 106.544H490.538L488.645 121.853H487.688L487.688 121.855ZM483.913 120.504C484.246 120.504 484.582 120.404 484.918 120.203C485.254 120.003 485.58 119.723 485.896 119.362C486.211 119.006 486.506 118.579 486.779 118.085C487.053 117.59 487.289 117.05 487.49 116.461L487.833 113.719C487.57 113.317 487.254 113.03 486.886 112.864C486.519 112.695 486.148 112.611 485.774 112.611C485.226 112.611 484.734 112.774 484.294 113.099C483.854 113.425 483.479 113.844 483.171 114.359C482.862 114.875 482.623 115.453 482.457 116.09C482.29 116.727 482.207 117.354 482.207 117.97C482.207 118.794 482.356 119.421 482.655 119.854C482.953 120.287 483.372 120.504 483.913 120.504Z" fill="black"/>
<path fill-rule="evenodd" clip-rule="evenodd" d="M422.201 93.3527H492.608V91.4055H422.201V93.3527Z" fill="black"/>
<path d="M498.948 91.4329C498.948 89.3803 498.688 87.3805 498.166 85.4426C497.642 83.5047 496.874 81.6582 495.865 79.9121C495.769 79.7296 495.721 79.5665 495.721 79.423C495.721 79.2888 495.755 79.1782 495.822 79.0918C495.89 79.0054 495.976 78.9288 496.082 78.8619L497.22 78.1567C497.94 79.2702 498.555 80.3678 499.059 81.452C499.563 82.5362 499.972 83.6245 500.284 84.7133C500.596 85.8072 500.821 86.9053 500.965 88.023C501.11 89.1355 501.182 90.2726 501.182 91.4329C501.182 92.6035 501.11 93.7448 500.965 94.8527C500.822 95.9652 500.596 97.0638 500.284 98.1619C499.972 99.2558 499.563 100.344 499.059 101.428C498.555 102.512 497.941 103.61 497.22 104.714L496.082 104.023C495.976 103.956 495.89 103.879 495.822 103.793C495.755 103.706 495.721 103.596 495.721 103.462C495.721 103.385 495.731 103.308 495.75 103.232C495.77 103.155 495.808 103.064 495.866 102.953C496.865 101.197 497.629 99.3515 498.156 97.4186C498.685 95.4858 498.948 93.4907 498.948 91.4329H498.948Z" fill="black"/>
<path fill-rule="evenodd" clip-rule="evenodd" d="M383.422 58.9316H506.69V56.9839H383.422V58.9316Z" fill="black"/>
<path d="M520.778 57.9138C520.778 52.5041 520.056 47.3355 518.6 42.3828C517.143 37.4423 514.977 32.6578 512.112 28.042C511.944 27.7777 511.86 27.5254 511.86 27.2844C511.86 26.9481 512.016 26.6954 512.329 26.5272L513.846 25.5894C515.675 28.4266 517.228 31.1788 518.503 33.8358C519.779 36.4928 520.802 39.1373 521.573 41.7692C522.343 44.4021 522.909 47.0465 523.258 49.7152C523.606 52.3722 523.775 55.1003 523.775 57.9133C523.775 60.7376 523.594 63.4666 523.245 66.111C522.896 68.7555 522.342 71.4 521.56 74.0328C520.79 76.6652 519.767 79.3097 518.491 81.9662C517.203 84.6232 515.651 87.3755 513.809 90.2127L512.293 89.2749C511.956 89.1067 511.787 88.8424 511.787 88.4815C511.787 88.2413 511.884 87.9886 512.076 87.7239C514.965 83.1321 517.143 78.3602 518.6 73.4192C520.056 68.467 520.778 63.31 520.778 57.9129V57.9138Z" fill="black"/>
<path d="M545.441 57.865L551.761 64.2446L550.354 65.6493L544.049 59.2274L537.551 65.5921L536.24 64.2729L542.67 57.865L536.27 51.5583L537.676 50.1527L544.049 56.503L550.421 50.1527L551.747 51.4575L545.441 57.865Z" fill="black"/>
<path d="M565.977 55.9294C565.977 57.9872 566.241 59.9818 566.769 61.9151C567.297 63.8479 568.061 65.6944 569.06 67.4498C569.117 67.5603 569.156 67.6514 569.175 67.728C569.194 67.8047 569.204 67.8813 569.204 67.9584C569.204 68.0922 569.17 68.2027 569.103 68.2891C569.036 68.3755 568.949 68.4522 568.844 68.5195L567.706 69.2103C566.985 68.1066 566.376 67.0089 565.871 65.9248C565.367 64.8406 564.958 63.7523 564.646 62.6583C564.335 61.5602 564.104 60.4621 563.96 59.3492C563.816 58.2408 563.744 57.0995 563.744 55.9294C563.744 54.7686 563.816 53.6319 563.96 52.5194C564.104 51.4023 564.334 50.3037 564.646 49.2098C564.958 48.121 565.367 47.0326 565.871 45.9484C566.376 44.8643 566.985 43.7666 567.706 42.6532L568.844 43.3583C568.949 43.4252 569.036 43.5019 569.103 43.5883C569.17 43.6747 569.204 43.7852 569.204 43.9195C569.204 44.063 569.156 44.226 569.06 44.4086C568.052 46.1547 567.289 48.0007 566.765 49.9391C566.241 51.8765 565.977 53.8767 565.977 55.9294H565.977Z" fill="black"/>
<path d="M575.197 64.1722H579.663L581.435 49.7449L581.694 48.6417L577.473 51.8887C577.3 52.0178 577.118 52.0856 576.926 52.0856C576.782 52.0856 576.652 52.0563 576.537 51.9941C576.422 51.9318 576.34 51.865 576.292 51.7883L575.659 50.7237L582.429 45.3948H584.446L582.141 64.1722H586.232L586.002 66.0716H574.981L575.197 64.1722ZM598.999 49.2943L598.235 55.4812H604.142L603.911 57.3518H598.004L597.241 63.553H595.21L595.973 57.3518H590.11L590.34 55.4812H596.204L596.982 49.2943H598.998H598.999Z" fill="black"/>
<path d="M622.554 48.6375C622.449 48.7718 622.348 48.8726 622.252 48.9441C622.156 49.0161 622.041 49.05 621.906 49.05C621.743 49.05 621.57 48.9683 621.387 48.8006C621.205 48.6324 620.974 48.4503 620.691 48.2539C620.408 48.0569 620.062 47.8753 619.659 47.7071C619.255 47.5394 618.751 47.453 618.146 47.453C617.531 47.453 616.983 47.5492 616.503 47.7406C616.023 47.9324 615.62 48.1958 615.289 48.527C614.957 48.8577 614.703 49.2414 614.53 49.6827C614.357 50.1244 614.27 50.5992 614.27 51.1125C614.27 51.6113 614.385 52.0285 614.616 52.369C614.846 52.7099 615.149 53.0021 615.524 53.2469C615.898 53.4912 616.33 53.7068 616.816 53.894C617.3 54.0863 617.79 54.2776 618.289 54.4746C618.789 54.6715 619.284 54.8871 619.769 55.1268C620.253 55.3665 620.681 55.6637 621.056 56.0186C621.43 56.374 621.733 56.8009 621.963 57.3039C622.194 57.8028 622.309 58.4076 622.309 59.1169C622.309 60.0956 622.141 61.0214 621.804 61.8891C621.469 62.7573 620.988 63.52 620.36 64.1722C619.731 64.8244 618.967 65.3428 618.074 65.726C617.181 66.1097 616.177 66.3015 615.063 66.3015C613.833 66.3015 612.739 66.0572 611.774 65.5727C610.808 65.0882 610.011 64.436 609.387 63.6111L610.337 62.3309C610.414 62.225 610.51 62.1386 610.625 62.0717C610.741 62.0048 610.865 61.9709 611 61.9709C611.182 61.9709 611.379 62.0763 611.59 62.2923C611.801 62.5079 612.07 62.7475 612.397 63.0114C612.724 63.2752 613.127 63.5149 613.607 63.7309C614.087 63.9464 614.688 64.057 615.408 64.057C616.07 64.057 616.671 63.9511 617.204 63.7402C617.736 63.5298 618.188 63.2367 618.558 62.8627C618.927 62.4888 619.211 62.0378 619.413 61.5147C619.614 60.9922 619.715 60.4115 619.715 59.7784C619.715 59.2507 619.6 58.8145 619.369 58.4643C619.139 58.114 618.836 57.8168 618.461 57.5771C618.087 57.3374 617.665 57.1265 617.189 56.949C616.714 56.7716 616.224 56.5942 615.72 56.4121C615.216 56.2295 614.726 56.0237 614.251 55.7933C613.775 55.5634 613.347 55.2708 612.973 54.9159C612.599 54.561 612.296 54.1197 612.066 53.6018C611.835 53.0838 611.72 52.4461 611.72 51.688C611.72 50.8435 611.874 50.0329 612.181 49.2563C612.488 48.4796 612.93 47.7889 613.506 47.1938C614.082 46.5993 614.783 46.1245 615.609 45.7692C616.435 45.4143 617.367 45.2373 618.404 45.2373C619.46 45.2373 620.411 45.4389 621.257 45.8458C622.102 46.2537 622.798 46.8101 623.346 47.5199L622.553 48.6375H622.554ZM625.58 63.3189C625.58 63.2613 625.584 63.1893 625.589 63.0983C625.594 63.0072 625.604 62.873 625.618 62.7002C625.633 62.5274 625.652 62.3021 625.681 62.0238C625.709 61.7456 625.753 61.3814 625.81 60.9304L626.718 53.6301H625.09C624.965 53.6301 624.864 53.5916 624.782 53.52C624.701 53.448 624.658 53.3375 624.658 53.1842C624.658 53.1549 624.663 53.0978 624.673 53.0114C624.682 52.925 624.696 52.8242 624.711 52.7141C624.726 52.6035 624.74 52.4934 624.754 52.3782C624.768 52.2631 624.778 52.153 624.788 52.0424L627.035 51.7405L628.116 47.237C628.155 47.093 628.227 46.9732 628.332 46.8817C628.438 46.7906 628.567 46.7479 628.721 46.7479H630.075L629.441 51.7693H633.273L633.057 53.6301H629.211L628.332 60.8003C628.284 61.1938 628.25 61.5101 628.226 61.7498C628.202 61.9895 628.183 62.1864 628.169 62.3304C628.154 62.4739 628.145 62.5747 628.14 62.6323C628.135 62.6895 628.13 62.7331 628.13 62.7615C628.13 63.2506 628.245 63.6106 628.471 63.8456C628.697 64.0807 629.005 64.2005 629.398 64.2005C629.648 64.2005 629.869 64.162 630.061 64.09C630.253 64.0184 630.421 63.9418 630.56 63.8554C630.699 63.769 630.815 63.6873 630.911 63.6153C631.007 63.5437 631.094 63.5098 631.17 63.5098C631.247 63.5098 631.309 63.5293 631.353 63.5674C631.396 63.606 631.439 63.6682 631.487 63.7593L632.021 64.9967C631.56 65.4046 631.031 65.7209 630.431 65.9559C629.831 66.1859 629.225 66.3011 628.62 66.3011C627.689 66.3011 626.954 66.047 626.416 65.5383C625.879 65.0302 625.6 64.2916 625.581 63.318L625.58 63.3189ZM639.612 64.273C640.313 64.273 640.952 64.0812 641.528 63.6928C642.104 63.3091 642.594 62.8005 642.997 62.1627C643.401 61.5203 643.713 60.7864 643.934 59.9516C644.155 59.1123 644.265 58.2395 644.265 57.3281C644.265 55.9852 644.001 54.9684 643.473 54.2874C642.945 53.606 642.181 53.2655 641.182 53.2655C640.472 53.2655 639.834 53.4578 639.262 53.8364C638.69 54.2149 638.2 54.7236 637.797 55.3613C637.394 55.9991 637.082 56.7377 636.86 57.5724C636.639 58.4071 636.529 59.2795 636.529 60.196C636.529 61.5389 636.793 62.5557 637.316 63.2418C637.84 63.9274 638.603 64.2725 639.612 64.2725V64.273ZM639.381 66.2732C638.584 66.2732 637.854 66.1343 637.191 65.8607C636.529 65.5871 635.958 65.1941 635.477 64.6757C634.997 64.1578 634.622 63.5247 634.354 62.7763C634.085 62.028 633.95 61.1747 633.95 60.215C633.95 58.9873 634.143 57.8316 634.526 56.7474C634.911 55.6633 635.439 54.7138 636.107 53.8986C636.774 53.0834 637.562 52.4405 638.469 51.9709C639.377 51.5008 640.356 51.2657 641.413 51.2657C642.21 51.2657 642.94 51.4 643.603 51.6736C644.265 51.9472 644.836 52.3448 645.317 52.8627C645.797 53.3807 646.172 54.0138 646.441 54.7668C646.709 55.5202 646.844 56.3735 646.844 57.3234C646.844 58.5414 646.652 59.6929 646.268 60.7766C645.883 61.8608 645.36 62.8103 644.692 63.6255C644.025 64.4407 643.232 65.0836 642.32 65.5583C641.407 66.033 640.428 66.2727 639.381 66.2727V66.2732ZM659.435 63.4624C658.936 64.0045 658.465 64.4602 658.018 64.8244C657.571 65.189 657.12 65.4765 656.669 65.6925C656.218 65.9081 655.752 66.0572 655.266 66.1431C654.781 66.2295 654.258 66.2723 653.701 66.2723C652.855 66.2723 652.111 66.1287 651.463 65.8407C650.815 65.5532 650.272 65.1449 649.835 64.6223C649.398 64.0993 649.066 63.4713 648.841 62.7373C648.615 62.0039 648.5 61.1933 648.5 60.3107C648.5 59.1309 648.687 57.9942 649.057 56.9105C649.426 55.8263 649.94 54.8671 650.603 54.0328C651.266 53.193 652.053 52.5264 652.966 52.0275C653.878 51.5287 654.882 51.2792 655.977 51.2792C656.937 51.2792 657.744 51.452 658.397 51.7925C659.049 52.1381 659.621 52.637 660.111 53.2938L659.304 54.2581C659.247 54.3348 659.175 54.397 659.088 54.4453C659.002 54.4927 658.906 54.5169 658.8 54.5169C658.666 54.5169 658.536 54.4597 658.407 54.3394C658.277 54.22 658.109 54.0853 657.903 53.9367C657.696 53.788 657.437 53.6533 657.124 53.534C656.812 53.4136 656.409 53.3514 655.919 53.3514C655.256 53.3514 654.632 53.534 654.041 53.893C653.451 54.253 652.932 54.7422 652.49 55.3706C652.049 55.994 651.703 56.7326 651.449 57.5864C651.194 58.4401 651.064 59.3561 651.064 60.3391C651.064 60.9341 651.131 61.4711 651.266 61.9602C651.401 62.4447 651.603 62.8572 651.872 63.1977C652.141 63.5381 652.472 63.802 652.861 63.9887C653.25 64.1759 653.701 64.2721 654.22 64.2721C654.652 64.2721 655.036 64.2242 655.372 64.1332C655.708 64.0421 656.006 63.9316 656.265 63.7973C656.525 63.6631 656.755 63.514 656.952 63.3561C657.149 63.1977 657.327 63.049 657.485 62.9143C657.644 62.7805 657.787 62.67 657.917 62.5789C658.047 62.4874 658.177 62.4396 658.311 62.4396C658.503 62.4396 658.667 62.5213 658.801 62.6844L659.435 63.461L659.435 63.4624ZM666.365 44.8629L664.838 57.3518H665.284C665.476 57.3518 665.635 57.323 665.759 57.2705C665.884 57.2175 666.023 57.1121 666.177 56.949L671.004 51.9992C671.157 51.8459 671.306 51.721 671.45 51.6253C671.594 51.5291 671.781 51.4813 672.011 51.4813H674.273L668.64 57.2226C668.496 57.3759 668.357 57.5148 668.218 57.6495C668.079 57.7787 667.925 57.8892 667.761 57.9854C667.915 58.1006 668.045 58.2348 668.151 58.3881C668.256 58.5414 668.361 58.7095 668.467 58.8916L672.847 66.0716H670.643C670.432 66.0716 670.264 66.033 670.134 65.9564C670.005 65.8797 669.884 65.7497 669.779 65.5681L666.062 59.5968C665.937 59.4045 665.816 59.2753 665.696 59.2084C665.577 59.1411 665.379 59.1076 665.11 59.1076H664.62L663.77 66.0716H661.235L663.842 44.8629H666.363H666.365Z" fill="black"/>
<path d="M680.882 55.9294C680.882 53.8767 680.623 51.877 680.1 49.9391C679.576 48.0011 678.808 46.1547 677.799 44.4086C677.703 44.226 677.655 44.063 677.655 43.9195C677.655 43.7852 677.689 43.6747 677.756 43.5883C677.824 43.5019 677.91 43.4252 678.016 43.3583L679.154 42.6532C679.874 43.7666 680.489 44.8643 680.993 45.9484C681.497 47.0326 681.906 48.121 682.218 49.2098C682.53 50.3037 682.755 51.4018 682.9 52.5194C683.044 53.6319 683.116 54.7691 683.116 55.9294C683.116 57.1 683.044 58.2413 682.9 59.3492C682.756 60.4617 682.53 61.5602 682.218 62.6583C681.906 63.7523 681.497 64.8406 680.993 65.9248C680.489 67.0089 679.875 68.1066 679.154 69.2103L678.016 68.5195C677.91 68.4522 677.824 68.3755 677.756 68.2891C677.689 68.2027 677.655 68.0922 677.655 67.9584C677.655 67.8813 677.665 67.8047 677.685 67.728C677.704 67.6514 677.742 67.5603 677.8 67.4498C678.799 65.6939 679.563 63.8479 680.091 61.9151C680.619 59.9823 680.883 57.9872 680.883 55.9294H680.882Z" fill="black"/>
<path d="M76.7057 57.9138C76.7057 63.3105 77.4401 68.468 78.8958 73.4202C80.3524 78.3612 82.5188 83.1331 85.4074 87.7248C85.5758 87.9896 85.6604 88.2423 85.6604 88.4824C85.6604 88.8434 85.4921 89.1077 85.1549 89.2758L83.6387 90.2137C81.7728 87.3764 80.2087 84.6242 78.9451 81.9672C77.681 79.3102 76.6583 76.6657 75.8881 74.0338C75.1058 71.4009 74.5519 68.7565 74.2031 66.112C73.8543 63.4675 73.6733 60.7385 73.6733 57.9143C73.6733 55.1012 73.8422 52.3727 74.1914 49.7161C74.5403 47.0475 75.1058 44.4031 75.8644 41.7702C76.6345 39.1378 77.6456 36.4934 78.9093 33.8368C80.1729 31.1798 81.7254 28.4276 83.5671 25.5903L85.1075 26.5282C85.4326 26.6963 85.5888 26.949 85.5888 27.2853C85.5888 27.526 85.5042 27.7786 85.3358 28.043C82.4834 32.6588 80.3287 37.4433 78.8846 42.3838C77.428 47.336 76.7062 52.5051 76.7062 57.9148L76.7057 57.9138Z" fill="black"/>
<path d="M697.003 57.9138C697.003 52.5041 696.281 47.3355 694.825 42.3828C693.368 37.4423 691.202 32.6578 688.337 28.042C688.169 27.7777 688.085 27.5254 688.085 27.2844C688.085 26.9481 688.241 26.6954 688.554 26.5272L690.071 25.5894C691.9 28.4266 693.453 31.1788 694.728 33.8358C696.004 36.4928 697.027 39.1373 697.798 41.7692C698.568 44.4021 699.134 47.0465 699.483 49.7152C699.831 52.3722 700 55.1003 700 57.9133C700 60.7376 699.819 63.4666 699.47 66.111C699.121 68.7555 698.567 71.4 697.785 74.0328C697.015 76.6652 695.992 79.3097 694.716 81.9662C693.429 84.6232 691.876 87.3755 690.034 90.2127L688.518 89.2749C688.181 89.1067 688.012 88.8424 688.012 88.4815C688.012 88.2413 688.109 87.9886 688.301 87.7239C691.19 83.1321 693.368 78.3602 694.825 73.4192C696.281 68.467 697.003 63.31 697.003 57.9129V57.9138Z" fill="black"/>
</g>
<defs>
<clipPath id="clip0_211_644">
<rect width="700" height="122" fill="white"/>
</clipPath>
</defs>
</svg>
