<svg width="152" height="28" viewBox="0 0 152 28" fill="none" xmlns="http://www.w3.org/2000/svg">
<g clip-path="url(#clip0_211_617)">
<path d="M3.64906 13.8474L2.69279 21.5624H0L2.53465 1H8.2544C9.35389 1 10.3102 1.12853 11.1217 1.38708C11.9318 1.64562 12.6031 2.01349 13.1298 2.49069C13.6564 2.96789 14.0473 3.54703 14.3083 4.21629C14.5694 4.88556 14.6992 5.63164 14.6992 6.45307C14.6992 7.53748 14.5202 8.52734 14.1636 9.43151C13.8071 10.3401 13.2909 11.1143 12.6091 11.7643C11.9288 12.4188 11.0889 12.9256 10.0894 13.2934C9.08984 13.6613 7.94708 13.8474 6.6626 13.8474H3.65055H3.64906ZM4.98128 3.12154L3.91014 11.7259H6.92218C7.7427 11.7259 8.46624 11.6018 9.09431 11.3536C9.72238 11.1054 10.2475 10.7567 10.6727 10.312C11.0979 9.86734 11.4201 9.33695 11.6424 8.72088C11.8647 8.10333 11.9751 7.43407 11.9751 6.70866C11.9751 6.15464 11.893 5.65676 11.7289 5.21649C11.5648 4.77623 11.3187 4.39949 10.9905 4.08924C10.6622 3.77898 10.2475 3.53965 9.74476 3.3727C9.242 3.20575 8.65869 3.1245 7.99333 3.1245H4.98128V3.12154Z" fill="black"/>
<path d="M13.5297 26.0199H16.77L18.0559 15.6412L18.2439 14.8478L15.1826 17.1836C15.0573 17.2767 14.9245 17.3254 14.7843 17.3254C14.6799 17.3254 14.5859 17.3047 14.5023 17.2604C14.4188 17.2161 14.3591 17.1674 14.3248 17.1127L13.8653 16.3459L18.778 12.5135H20.2415L18.5691 26.0214H21.5379L21.3708 27.388H13.3745L13.5312 26.0214L13.5297 26.0199Z" fill="black"/>
<path d="M53.235 13.8476L52.2787 21.5625H49.5859L52.1206 1.00012H57.8403C58.9398 1.00012 59.8961 1.12866 60.7077 1.3872C61.5177 1.64574 62.1891 2.01362 62.7157 2.49082C63.2423 2.96801 63.6332 3.54715 63.8943 4.21642C64.1553 4.88568 64.2851 5.63176 64.2851 6.45319C64.2851 7.5376 64.1061 8.52746 63.7496 9.43163C63.393 10.3402 62.8768 11.1144 62.195 11.7644C61.5148 12.4189 60.6749 12.9257 59.6753 13.2935C58.6758 13.6614 57.533 13.8476 56.2485 13.8476H53.2365H53.235ZM54.5672 3.12166L53.4961 11.726H56.5081C57.3286 11.726 58.0522 11.6019 58.6802 11.3537C59.3083 11.1055 59.8334 10.7569 60.2586 10.3122C60.6838 9.86746 61.006 9.33707 61.2283 8.721C61.4506 8.10345 61.561 7.43419 61.561 6.70878C61.561 6.15476 61.479 5.65688 61.3149 5.21661C61.1508 4.77635 60.9046 4.39961 60.5764 4.08936C60.2482 3.77911 59.8334 3.53977 59.3307 3.37282C58.8279 3.20588 58.2446 3.12462 57.5793 3.12462H54.5672V3.12166Z" fill="black"/>
<path d="M91.3532 13.8476L90.3969 21.5625H87.7041L90.2388 1.00012H95.9585C97.058 1.00012 98.0143 1.12866 98.8258 1.3872C99.6359 1.64574 100.307 2.01362 100.834 2.49082C101.36 2.96801 101.751 3.54715 102.012 4.21642C102.273 4.88568 102.403 5.63176 102.403 6.45319C102.403 7.5376 102.224 8.52746 101.868 9.43163C101.511 10.3402 100.995 11.1144 100.313 11.7644C99.6329 12.4189 98.793 12.9257 97.7935 13.2935C96.7939 13.6614 95.6512 13.8476 94.3667 13.8476H91.3547H91.3532ZM92.6854 3.12166L91.6142 11.726H94.6263C95.4468 11.726 96.1703 11.6019 96.7984 11.3537C97.4265 11.1055 97.9516 10.7569 98.3768 10.3122C98.802 9.86746 99.1242 9.33707 99.3465 8.721C99.5688 8.10345 99.6792 7.43419 99.6792 6.70878C99.6792 6.15476 99.5971 5.65688 99.433 5.21661C99.2689 4.77635 99.0228 4.39961 98.6945 4.08936C98.3663 3.77911 97.9516 3.53977 97.4489 3.37282C96.9461 3.20588 96.3628 3.12462 95.6974 3.12462H92.6854V3.12166Z" fill="black"/>
<path d="M103.385 14.0131C103.964 14.0131 104.5 14.0958 104.99 14.2583C105.481 14.4209 105.903 14.6543 106.259 14.969C106.614 15.2792 106.893 15.6589 107.091 16.1036C107.289 16.5483 107.386 17.0565 107.386 17.6224C107.386 18.2532 107.289 18.8265 107.091 19.3465C106.893 19.8636 106.621 20.3541 106.279 20.8195C105.938 21.2819 105.541 21.731 105.084 22.1683C104.628 22.6027 104.14 23.0518 103.625 23.5142L99.12 27.5815C99.4064 27.4988 99.6914 27.4367 99.9763 27.3924C100.263 27.3481 100.537 27.323 100.803 27.323H105.924C106.105 27.323 106.245 27.3717 106.342 27.4678C106.441 27.5638 106.488 27.6923 106.488 27.8504C106.488 27.9198 106.481 28.0129 106.467 28.1296C106.454 28.2463 106.439 28.3542 106.426 28.4502L106.352 28.9983H96.4019L96.475 28.3882C96.4884 28.2715 96.5316 28.14 96.6003 27.9981C96.6704 27.8563 96.7674 27.7322 96.8927 27.6214L102.307 22.8287C102.815 22.3811 103.267 21.9526 103.666 21.5493C104.064 21.146 104.401 20.7456 104.676 20.3482C104.95 19.9508 105.159 19.5474 105.302 19.1338C105.445 18.7201 105.514 18.2739 105.514 17.7982C105.514 17.4259 105.454 17.0979 105.334 16.8142C105.211 16.5321 105.041 16.2972 104.825 16.111C104.609 15.9249 104.355 15.783 104.058 15.6855C103.761 15.5895 103.437 15.5407 103.09 15.5407C102.31 15.5407 101.647 15.7402 101.1 16.145C100.552 16.5483 100.149 17.1038 99.8913 17.8085C99.8152 18.008 99.7167 18.1498 99.5944 18.2325C99.4721 18.3153 99.3229 18.3566 99.1483 18.3566C99.114 18.3566 99.0753 18.3537 99.0335 18.3493C98.9917 18.3463 98.9499 18.3434 98.9082 18.336L97.9981 18.1838C98.1727 17.5042 98.4338 16.9044 98.7784 16.3858C99.123 15.8687 99.5273 15.4299 99.9942 15.0783C100.461 14.7267 100.983 14.4578 101.558 14.2776C102.132 14.0988 102.739 14.0087 103.381 14.0087L103.385 14.0131Z" fill="black"/>
<path d="M132.756 13.8476L131.8 21.5625H129.107L131.642 1.00012H137.362C138.461 1.00012 139.418 1.12866 140.229 1.3872C141.039 1.64574 141.711 2.01362 142.237 2.49082C142.764 2.96801 143.155 3.54715 143.416 4.21642C143.677 4.88568 143.807 5.63176 143.807 6.45319C143.807 7.5376 143.628 8.52746 143.271 9.43163C142.914 10.3402 142.398 11.1144 141.717 11.7644C141.036 12.4189 140.196 12.9257 139.197 13.2935C138.197 13.6614 137.055 13.8476 135.77 13.8476H132.758H132.756ZM134.089 3.12166L133.018 11.726H136.03C136.85 11.726 137.574 11.6019 138.202 11.3537C138.83 11.1055 139.355 10.7569 139.78 10.3122C140.205 9.86746 140.528 9.33707 140.75 8.721C140.972 8.10345 141.083 7.43419 141.083 6.70878C141.083 6.15476 141 5.65688 140.836 5.21661C140.672 4.77635 140.426 4.39961 140.098 4.08936C139.77 3.77911 139.355 3.53977 138.852 3.37282C138.349 3.20588 137.766 3.12462 137.101 3.12462H134.089V3.12166Z" fill="black"/>
<path d="M147.79 12.3983C148.375 12.3983 148.912 12.4766 149.395 12.6362C149.88 12.7958 150.29 13.0233 150.632 13.3158C150.973 13.6098 151.238 13.9644 151.425 14.3795C151.613 14.7932 151.707 15.2527 151.707 15.7565C151.707 16.3016 151.634 16.7847 151.488 17.2014C151.342 17.6195 151.136 17.9844 150.868 18.2946C150.599 18.6049 150.275 18.8634 149.896 19.0673C149.516 19.2712 149.091 19.4367 148.624 19.5608C149.474 19.8016 150.116 20.1887 150.544 20.7235C150.972 21.2583 151.185 21.9128 151.185 22.6869C151.185 23.4315 151.036 24.1008 150.736 24.6992C150.436 25.296 150.032 25.8072 149.523 26.2312C149.015 26.6552 148.425 26.9832 147.754 27.2107C147.081 27.4382 146.374 27.552 145.636 27.552C144.939 27.552 144.329 27.4722 143.807 27.3141C143.284 27.159 142.838 26.9212 142.468 26.6065C142.098 26.2888 141.799 25.8929 141.569 25.4127C141.339 24.9326 141.169 24.3667 141.057 23.7152L141.893 23.3798C142.046 23.3207 142.185 23.2897 142.31 23.2897C142.443 23.2897 142.558 23.3178 142.652 23.3724C142.746 23.4271 142.809 23.5098 142.843 23.6207C142.955 24.021 143.088 24.3697 143.241 24.6696C143.395 24.9695 143.586 25.2177 143.816 25.4186C144.045 25.6181 144.321 25.7703 144.642 25.8707C144.963 25.9712 145.349 26.0185 145.801 26.0185C146.373 26.0185 146.881 25.921 147.327 25.7289C147.773 25.5354 148.149 25.2842 148.452 24.9769C148.755 24.6666 148.985 24.315 149.144 23.922C149.306 23.5276 149.385 23.1316 149.385 22.7239C149.385 22.3929 149.332 22.0886 149.228 21.8094C149.124 21.5301 148.936 21.2893 148.664 21.0854C148.393 20.8816 148.026 20.7235 147.566 20.6053C147.107 20.4886 146.52 20.4295 145.81 20.4295L145.977 19.1249C147.301 19.1249 148.287 18.856 148.936 18.3212C149.583 17.7864 149.908 17.0551 149.908 16.1273C149.908 15.7609 149.849 15.4403 149.731 15.164C149.613 14.8878 149.446 14.6573 149.229 14.4741C149.013 14.2909 148.76 14.1535 148.467 14.0634C148.175 13.9732 147.854 13.9289 147.505 13.9289C146.711 13.9289 146.041 14.1328 145.498 14.5391C144.955 14.9424 144.551 15.495 144.285 16.1908C144.209 16.3903 144.111 16.5291 143.989 16.6119C143.866 16.6946 143.72 16.736 143.553 16.736C143.519 16.736 143.483 16.736 143.446 16.733C143.407 16.7301 143.369 16.7227 143.335 16.7153L142.415 16.5631C142.589 15.8865 142.85 15.2867 143.195 14.7696C143.54 14.2525 143.944 13.8166 144.411 13.465C144.878 13.1104 145.397 12.8445 145.968 12.6643C146.54 12.4855 147.147 12.3954 147.787 12.3954L147.79 12.3983Z" fill="black"/>
<path d="M72.1117 9.18787H78.7295L78.4535 11.2813H71.8506L72.1117 9.18787Z" fill="black"/>
<path d="M113.767 9.18787H120.385L120.11 11.2813H113.507L113.767 9.18787Z" fill="black"/>
<path d="M28.5003 12.716H40.9244L40.6932 14.6085H28.269L28.5003 12.716ZM29.109 7.95581H41.5047L41.2884 9.84836H28.8792L29.1104 7.95581H29.109Z" fill="black"/>
</g>
<defs>
<clipPath id="clip0_211_617">
<rect width="151.709" height="28" fill="white"/>
</clipPath>
</defs>
</svg>
