<?xml version="1.0" encoding="utf-8"?>
<!-- Generator: Adobe Illustrator 24.1.2, SVG Export Plug-In . SVG Version: 6.00 Build 0)  -->
<svg version="1.1" id="Layer_1" xmlns="http://www.w3.org/2000/svg" xmlns:xlink="http://www.w3.org/1999/xlink" x="0px" y="0px"
	 viewBox="0 0 378.1 378.1" style="enable-background:new 0 0 378.1 378.1;" xml:space="preserve">
<style type="text/css">
	.st0{fill-rule:evenodd;clip-rule:evenodd;fill:#FFA800;}
	.st1{fill:#FFFFFF;}
	.st2{fill-rule:evenodd;clip-rule:evenodd;fill:#FFFFFF;}
</style>
<g id="Слой_x0020_1">
	<g>
		<g>
			<circle class="st0" cx="189" cy="189" r="189"/>
		</g>
	</g>
	<g id="_1318247100848">
		<g>
			<g>
				<path class="st1" d="M283.9,297.7H107.5c-4.7,0-8.5-3.8-8.5-8.5v-39.6h8.5v39.6l176.3-0.1l-0.1-200.3l-176.3,0.1l0.1,110H99
					V88.8c0-4.7,3.8-8.5,8.5-8.5h176.4c4.7,0,8.5,3.8,8.5,8.5v200.4C292.4,293.9,288.6,297.7,283.9,297.7z"/>
			</g>
		</g>
		<g>
			<g>
				<path class="st1" d="M267.3,253.9H107.7c-16.5,0-30-13.4-30-29.9c0-16.5,13.4-30,30-30h147.7v8.5H107.7
					c-11.8,0-21.4,9.6-21.4,21.4c0,11.8,9.6,21.3,21.4,21.3h159.6c6.8,0,13.2-3.2,17.1-8.6l6.9,5
					C285.7,249.3,276.8,253.9,267.3,253.9z"/>
			</g>
		</g>
		<g>
			<g>
				<path class="st1" d="M261.7,253.8c-17.9,0-32-13.9-32-31.7c0-15.8,12.2-28.2,27.8-28.2c8.2,0,16.3,4.2,21.1,10.8
					c4.3,6,5.4,13.3,3,20.1c-3.9,11.5-11.5,14.3-15.6,14.9c-6.7,1-13.6-2-17.6-7.6c-3.7-5.2-4.2-11.5-1.2-17.2
					c1.1-2.1,3.6-2.9,5.7-1.8c2.1,1.1,2.9,3.6,1.8,5.7c-1.9,3.7-0.7,6.6,0.6,8.4c2.2,3,5.9,4.7,9.4,4.2c3.9-0.6,7-3.8,8.8-9.2
					c1.5-4.3,0.8-8.7-1.9-12.4c-3.2-4.5-8.6-7.3-14.2-7.3c-11,0-19.2,8.4-19.2,19.6c0,13,10.3,23.1,23.4,23.1c2.3,0,4.3,1.9,4.3,4.3
					S264,253.8,261.7,253.8z"/>
			</g>
		</g>
		<g>
			<g>
				<circle class="st2" cx="131.3" cy="114.1" r="9.3"/>
				<path class="st1" d="M131.3,127.7c-7.5,0-13.6-6.1-13.6-13.6s6.1-13.6,13.6-13.6s13.6,6.1,13.6,13.6S138.8,127.7,131.3,127.7z
					 M131.3,109.1c-2.8,0-5,2.3-5,5c0,2.8,2.3,5,5,5c2.8,0,5-2.3,5-5C136.3,111.3,134.1,109.1,131.3,109.1z"/>
			</g>
		</g>
		<g>
			<g>
				<circle class="st2" cx="195.7" cy="114.1" r="9.3"/>
				<path class="st1" d="M195.7,127.7c-7.5,0-13.6-6.1-13.6-13.6s6.1-13.6,13.6-13.6s13.6,6.1,13.6,13.6S203.2,127.7,195.7,127.7z
					 M195.7,109.1c-2.8,0-5,2.3-5,5c0,2.8,2.3,5,5,5s5-2.3,5-5C200.7,111.3,198.5,109.1,195.7,109.1z"/>
			</g>
		</g>
		<g>
			<g>
				
					<ellipse transform="matrix(0.1602 -0.9871 0.9871 0.1602 102.5346 348.715)" class="st2" cx="256.2" cy="114.1" rx="9.3" ry="9.3"/>
				<path class="st1" d="M256.2,127.7c-7.5,0-13.6-6.1-13.6-13.6s6.1-13.6,13.6-13.6s13.6,6.1,13.6,13.6S263.7,127.7,256.2,127.7z
					 M256.2,109.1c-2.8,0-5,2.3-5,5c0,2.8,2.3,5,5,5s5-2.3,5-5C261.2,111.3,259,109.1,256.2,109.1z"/>
			</g>
		</g>
		<g>
			<g>
				<g>
					<circle class="st2" cx="133.2" cy="174.4" r="9.3"/>
					<path class="st1" d="M133.2,188c-7.5,0-13.6-6.1-13.6-13.6s6.1-13.6,13.6-13.6s13.6,6.1,13.6,13.6S140.7,188,133.2,188z
						 M133.2,169.4c-2.8,0-5,2.3-5,5c0,2.8,2.3,5,5,5c2.8,0,5-2.3,5-5C138.2,171.6,136,169.4,133.2,169.4z"/>
				</g>
			</g>
			<g>
				<g>
					<circle class="st2" cx="195.7" cy="174.4" r="9.3"/>
					<path class="st1" d="M195.7,188c-7.5,0-13.6-6.1-13.6-13.6s6.1-13.6,13.6-13.6s13.6,6.1,13.6,13.6S203.2,188,195.7,188z
						 M195.7,169.4c-2.8,0-5,2.3-5,5c0,2.8,2.3,5,5,5s5-2.3,5-5C200.7,171.6,198.5,169.4,195.7,169.4z"/>
				</g>
			</g>
			<g>
				<g>
					
						<ellipse transform="matrix(0.1602 -0.9871 0.9871 0.1602 44.6929 401.3302)" class="st2" cx="258.2" cy="174.4" rx="9.3" ry="9.3"/>
					<path class="st1" d="M258.2,188c-7.5,0-13.6-6.1-13.6-13.6s6.1-13.6,13.6-13.6s13.6,6.1,13.6,13.6S265.7,188,258.2,188z
						 M258.2,169.4c-2.8,0-5,2.3-5,5c0,2.8,2.3,5,5,5s5-2.3,5-5C263.2,171.6,261,169.4,258.2,169.4z"/>
				</g>
			</g>
		</g>
		<g>
			<g>
				<g>
					<circle class="st2" cx="164.5" cy="144.3" r="9.3"/>
					<path class="st1" d="M164.5,157.9c-7.5,0-13.6-6.1-13.6-13.6s6.1-13.6,13.6-13.6s13.6,6.1,13.6,13.6S172,157.9,164.5,157.9z
						 M164.5,139.3c-2.8,0-5,2.3-5,5c0,2.8,2.3,5,5,5s5-2.3,5-5C169.5,141.5,167.3,139.3,164.5,139.3z"/>
				</g>
			</g>
			<g>
				<g>
					<ellipse class="st2" cx="227" cy="144.3" rx="9.3" ry="9.3"/>
					<path class="st1" d="M227,157.9c-0.7,0-1.5-0.1-2.2-0.2c-3.6-0.6-6.7-2.5-8.8-5.5c-2.1-2.9-3-6.5-2.4-10.1
						c0.6-3.6,2.5-6.7,5.5-8.8c2.9-2.1,6.5-3,10.1-2.4c7.4,1.2,12.4,8.2,11.2,15.5c-0.6,3.6-2.5,6.7-5.5,8.8
						C232.5,157,229.8,157.9,227,157.9z M226.9,139.3c-1,0-2.1,0.3-2.9,1c-1.1,0.8-1.8,2-2,3.3v0c-0.2,1.3,0.1,2.7,0.9,3.8
						c0.8,1.1,2,1.8,3.3,2c1.3,0.2,2.7-0.1,3.8-0.9c1.1-0.8,1.8-2,2-3.3c0.4-2.7-1.4-5.3-4.2-5.8
						C227.5,139.3,227.2,139.3,226.9,139.3z"/>
				</g>
			</g>
		</g>
	</g>
</g>
</svg>
