<svg width="85" height="28" viewBox="0 0 85 28" fill="none" xmlns="http://www.w3.org/2000/svg">
<path d="M45.0624 21.3021H40.1294V5.94212H45.0624V21.3021ZM45.2025 3.72789H39.9891L42.4408 0H47.6542L45.2025 3.72789ZM65.1113 21.3138H60.178V13.6991C60.178 13.0779 60.1454 12.4612 60.0847 11.8446C60.0193 11.2279 59.9071 10.7748 59.7529 10.4853C59.5707 10.1489 59.3046 9.90125 58.9542 9.74711C58.6038 9.5929 58.1133 9.51354 57.4873 9.51354C57.0388 9.51354 56.5857 9.58822 56.1233 9.73308C55.6655 9.87786 55.1656 10.1114 54.6283 10.4291V21.3137H49.6952V5.95373H54.6283V7.65419C55.5018 6.96741 56.3427 6.4442 57.1462 6.0798C57.9544 5.7154 58.8467 5.53336 59.8278 5.53336C61.4861 5.53336 62.7802 6.01439 63.7144 6.98152C64.6441 7.9485 65.1113 9.39199 65.1113 11.3167V21.3137L65.1113 21.3138ZM84.6007 19.5433C84.6007 20.9821 84.3952 22.1921 83.984 23.1777C83.5729 24.1634 82.9984 24.9342 82.2603 25.4901C81.5174 26.0554 80.6251 26.4618 79.5835 26.7139C78.5371 26.9615 77.3551 27.0877 76.0424 27.0877C74.9726 27.0877 73.9215 27.0223 72.8845 26.8962C71.8473 26.7654 70.9505 26.6113 70.1937 26.4291V22.5751H70.7962C71.3989 22.8134 72.1323 23.0329 73.0013 23.2291C73.8655 23.43 74.641 23.528 75.3277 23.528C76.2386 23.528 76.9814 23.444 77.5514 23.2758C78.1213 23.1077 78.5604 22.8693 78.8594 22.5611C79.1444 22.2668 79.3499 21.8976 79.476 21.4398C79.6022 20.9867 79.6676 20.4402 79.6676 19.8048V19.5198C79.0743 20.001 78.4156 20.3841 77.6962 20.6644C76.9721 20.9494 76.1686 21.0895 75.281 21.0895C73.1274 21.0895 71.4643 20.4402 70.2918 19.1461C69.1239 17.8521 68.54 15.8854 68.54 13.2413C68.54 11.9753 68.7174 10.8823 69.0726 9.9619C69.4323 9.04162 69.9321 8.23805 70.5814 7.55603C71.184 6.92079 71.9269 6.42081 72.8098 6.06576C73.688 5.7108 74.5942 5.53328 75.5146 5.53328C76.3461 5.53328 77.1029 5.63127 77.785 5.82751C78.4623 6.02366 79.0837 6.29458 79.6395 6.64035L79.8171 5.95365H84.6006V19.5431L84.6007 19.5433ZM79.6677 16.4601V9.5041C79.3873 9.38739 79.037 9.29391 78.6305 9.22382C78.2194 9.15381 77.8504 9.12107 77.5234 9.12107C76.2294 9.12107 75.2578 9.49015 74.613 10.2329C73.9637 10.9757 73.6414 12.0127 73.6414 13.3442C73.6414 14.8203 73.917 15.8481 74.4682 16.4321C75.0194 17.016 75.837 17.3056 76.9208 17.3056C77.4113 17.3056 77.8971 17.2262 78.3691 17.0721C78.8408 16.9179 79.2753 16.7123 79.6677 16.4601Z" fill="black"/>
<path d="M16.0607 19.5317C16.0607 20.9706 15.8552 22.1805 15.4441 23.1662C15.0329 24.1518 14.4584 24.9226 13.7203 25.4786C12.9775 26.0438 12.0852 26.4502 11.0435 26.7024C9.99707 26.9501 8.81514 27.0761 7.5024 27.0761C6.43258 27.0761 5.38157 27.0108 4.3445 26.8847C3.30735 26.7538 2.41046 26.5997 1.65368 26.4176V22.5636H2.25625C2.85899 22.8019 3.59239 23.0214 4.46129 23.2176C5.32559 23.4184 6.10101 23.5165 6.78779 23.5165C7.69871 23.5165 8.44139 23.4324 9.01146 23.2643C9.58129 23.0961 10.0205 22.8579 10.3194 22.5495C10.6045 22.2553 10.81 21.8861 10.9361 21.4283C11.0622 20.9752 11.1276 20.4287 11.1276 19.7933V19.5083C10.5344 19.9894 9.8756 20.3725 9.15623 20.6528C8.43219 20.9379 7.62862 21.0779 6.74101 21.0779C4.58743 21.0779 2.92432 20.4287 1.75183 19.1346C0.583945 17.8406 0 15.8738 0 13.2298C0 11.9637 0.177522 10.8707 0.532567 9.95034C0.89229 9.03006 1.39219 8.22649 2.04139 7.54447C2.64412 6.90915 3.38688 6.40933 4.26981 6.0542C5.14807 5.69924 6.05431 5.52171 6.97467 5.52171C7.80614 5.52171 8.56293 5.61971 9.24504 5.81595C9.92238 6.01218 10.5437 6.2831 11.0995 6.62879L11.2771 5.94209H16.0607L16.0607 19.5317ZM11.1277 16.4485V9.49254C10.8474 9.37583 10.497 9.28235 10.0905 9.21234C9.67953 9.14225 9.31045 9.10951 8.98347 9.10951C7.68944 9.10951 6.71778 9.47858 6.07302 10.2214C5.42367 10.9642 5.10145 12.0012 5.10145 13.3326C5.10145 14.8088 5.37705 15.8366 5.92825 16.4205C6.47953 17.0045 7.29705 17.294 8.38081 17.294C8.87136 17.294 9.35715 17.2146 9.82906 17.0605C10.3008 16.9063 10.7353 16.7008 11.1277 16.4485ZM36.4427 13.6269C36.4427 16.1542 35.7046 18.1443 34.233 19.5971C32.7569 21.0499 30.6875 21.7786 28.0199 21.7786C25.3525 21.7786 23.2829 21.0499 21.8068 19.5971C20.3351 18.1443 19.5971 16.1542 19.5971 13.6269C19.5971 11.0856 20.34 9.09087 21.8207 7.63803C23.3064 6.18986 25.3712 5.46582 28.0199 5.46582C30.706 5.46582 32.7802 6.19454 34.2424 7.65206C35.7093 9.11418 36.4427 11.1043 36.4427 13.6269ZM30.3791 17.3501C30.7014 16.9577 30.9396 16.4905 31.1031 15.9393C31.262 15.388 31.3414 14.6266 31.3414 13.6549C31.3414 12.758 31.2573 12.0012 31.0938 11.3939C30.9303 10.7867 30.7014 10.3008 30.4071 9.93646C30.1174 9.56271 29.7625 9.30114 29.3514 9.14693C28.9403 8.9928 28.4964 8.91327 28.02 8.91327C27.5436 8.91327 27.1232 8.97868 26.7493 9.10483C26.3803 9.23097 26.0253 9.48326 25.6889 9.86629C25.3851 10.2214 25.1423 10.7072 24.9648 11.3238C24.7872 11.9451 24.6986 12.7207 24.6986 13.6549C24.6986 14.4911 24.778 15.2153 24.9321 15.8319C25.0863 16.4439 25.3153 16.9344 25.6189 17.308C25.9132 17.6631 26.259 17.9201 26.6699 18.0835C27.0764 18.247 27.5389 18.3311 28.0621 18.3311C28.5105 18.3311 28.9357 18.2564 29.3468 18.1068C29.7532 17.9574 30.0988 17.7051 30.3791 17.3501Z" fill="#FFA800"/>
</svg>
